ISO-10303-21;
HEADER;
/* Generated by software containing ST-Developer
 * from STEP Tools, Inc. (www.steptools.com) 
 */
/* OPTION: using custom renumber hook */

FILE_DESCRIPTION(
/* description */ ('STEP AP214'),
/* implementation_level */ '2;1');

FILE_NAME(
/* name */ 'FTR-102-02-S-S',
/* time_stamp */ '2024-10-20T06:47:42+02:00',
/* author */ ('License CC BY-ND 4.0'),
/* organization */ ('CADENAS'),
/* preprocessor_version */ 'ST-DEVELOPER v19.3',
/* originating_system */ 'PARTsolutions',
/* authorisation */ '  ');

FILE_SCHEMA (('AUTOMOTIVE_DESIGN {1 0 10303 214 3 1 1}'));
ENDSEC;

DATA;
#10=PROPERTY_DEFINITION_REPRESENTATION(#14,#12);
#11=PROPERTY_DEFINITION_REPRESENTATION(#15,#13);
#12=REPRESENTATION('',(#16),#2195);
#13=REPRESENTATION('',(#17),#2195);
#14=PROPERTY_DEFINITION('pmi validation property','',#2209);
#15=PROPERTY_DEFINITION('pmi validation property','',#2209);
#16=VALUE_REPRESENTATION_ITEM('number of annotations',COUNT_MEASURE(0.));
#17=VALUE_REPRESENTATION_ITEM('number of views',COUNT_MEASURE(0.));
#18=CYLINDRICAL_SURFACE('',#1432,0.0379999999999975);
#19=CYLINDRICAL_SURFACE('',#1436,0.0199999999999993);
#20=CYLINDRICAL_SURFACE('',#1439,0.0380000000000057);
#21=CYLINDRICAL_SURFACE('',#1444,0.0199999999999998);
#22=CIRCLE('',#1425,0.0199999999999993);
#23=CIRCLE('',#1426,0.0379999999999975);
#24=CIRCLE('',#1428,0.0199999999999998);
#25=CIRCLE('',#1429,0.0380000000000057);
#26=CIRCLE('',#1433,0.0379999999999975);
#27=CIRCLE('',#1437,0.0199999999999993);
#28=CIRCLE('',#1440,0.0380000000000057);
#29=CIRCLE('',#1445,0.0199999999999998);
#30=CONTEXT_DEPENDENT_SHAPE_REPRESENTATION(#36,#2211);
#31=CONTEXT_DEPENDENT_SHAPE_REPRESENTATION(#37,#2213);
#32=CONTEXT_DEPENDENT_SHAPE_REPRESENTATION(#38,#2215);
#33=NEXT_ASSEMBLY_USAGE_OCCURRENCE('NAUO1','FTR-102-02-S-S_body',
'FTR-102-02-S-S_body',#2216,#2217,'');
#34=NEXT_ASSEMBLY_USAGE_OCCURRENCE('NAUO2','FTR-102-02-S-S_pins',
'FTR-102-02-S-S_pins',#2216,#2218,'');
#35=NEXT_ASSEMBLY_USAGE_OCCURRENCE('NAUO3','FTR-102-02-S-S2PNS',
'FTR-102-02-S-S2PNS',#2216,#2219,'');
#36=(
REPRESENTATION_RELATIONSHIP(' ',' ',#1391,#1390)
REPRESENTATION_RELATIONSHIP_WITH_TRANSFORMATION(#39)
SHAPE_REPRESENTATION_RELATIONSHIP()
);
#37=(
REPRESENTATION_RELATIONSHIP(' ',' ',#1392,#1390)
REPRESENTATION_RELATIONSHIP_WITH_TRANSFORMATION(#40)
SHAPE_REPRESENTATION_RELATIONSHIP()
);
#38=(
REPRESENTATION_RELATIONSHIP(' ',' ',#1393,#1390)
REPRESENTATION_RELATIONSHIP_WITH_TRANSFORMATION(#41)
SHAPE_REPRESENTATION_RELATIONSHIP()
);
#39=ITEM_DEFINED_TRANSFORMATION(' ',' ',#1394,#1421);
#40=ITEM_DEFINED_TRANSFORMATION(' ',' ',#1394,#1452);
#41=ITEM_DEFINED_TRANSFORMATION(' ',' ',#1394,#1475);
#42=SHAPE_REPRESENTATION_RELATIONSHIP('','',#1391,#45);
#43=SHAPE_REPRESENTATION_RELATIONSHIP('','',#1392,#46);
#44=SHAPE_REPRESENTATION_RELATIONSHIP('','',#1393,#47);
#45=ADVANCED_BREP_SHAPE_REPRESENTATION('',(#1383),#2196);
#46=ADVANCED_BREP_SHAPE_REPRESENTATION('',(#1384),#2197);
#47=ADVANCED_BREP_SHAPE_REPRESENTATION('',(#1385),#2198);
#48=ORIENTED_EDGE('',*,*,#416,.F.);
#49=ORIENTED_EDGE('',*,*,#417,.T.);
#50=ORIENTED_EDGE('',*,*,#418,.T.);
#51=ORIENTED_EDGE('',*,*,#419,.T.);
#52=ORIENTED_EDGE('',*,*,#420,.T.);
#53=ORIENTED_EDGE('',*,*,#421,.T.);
#54=ORIENTED_EDGE('',*,*,#422,.F.);
#55=ORIENTED_EDGE('',*,*,#423,.F.);
#56=ORIENTED_EDGE('',*,*,#424,.F.);
#57=ORIENTED_EDGE('',*,*,#425,.T.);
#58=ORIENTED_EDGE('',*,*,#426,.F.);
#59=ORIENTED_EDGE('',*,*,#427,.F.);
#60=ORIENTED_EDGE('',*,*,#422,.T.);
#61=ORIENTED_EDGE('',*,*,#428,.F.);
#62=ORIENTED_EDGE('',*,*,#429,.F.);
#63=ORIENTED_EDGE('',*,*,#430,.F.);
#64=ORIENTED_EDGE('',*,*,#431,.T.);
#65=ORIENTED_EDGE('',*,*,#426,.T.);
#66=ORIENTED_EDGE('',*,*,#432,.F.);
#67=ORIENTED_EDGE('',*,*,#433,.F.);
#68=ORIENTED_EDGE('',*,*,#434,.F.);
#69=ORIENTED_EDGE('',*,*,#435,.T.);
#70=ORIENTED_EDGE('',*,*,#418,.F.);
#71=ORIENTED_EDGE('',*,*,#436,.F.);
#72=ORIENTED_EDGE('',*,*,#437,.F.);
#73=ORIENTED_EDGE('',*,*,#438,.F.);
#74=ORIENTED_EDGE('',*,*,#439,.F.);
#75=ORIENTED_EDGE('',*,*,#440,.F.);
#76=ORIENTED_EDGE('',*,*,#439,.T.);
#77=ORIENTED_EDGE('',*,*,#441,.F.);
#78=ORIENTED_EDGE('',*,*,#442,.F.);
#79=ORIENTED_EDGE('',*,*,#443,.F.);
#80=ORIENTED_EDGE('',*,*,#444,.T.);
#81=ORIENTED_EDGE('',*,*,#445,.T.);
#82=ORIENTED_EDGE('',*,*,#420,.F.);
#83=ORIENTED_EDGE('',*,*,#446,.F.);
#84=ORIENTED_EDGE('',*,*,#442,.T.);
#85=ORIENTED_EDGE('',*,*,#447,.T.);
#86=ORIENTED_EDGE('',*,*,#448,.T.);
#87=ORIENTED_EDGE('',*,*,#449,.T.);
#88=ORIENTED_EDGE('',*,*,#416,.T.);
#89=ORIENTED_EDGE('',*,*,#450,.T.);
#90=ORIENTED_EDGE('',*,*,#451,.T.);
#91=ORIENTED_EDGE('',*,*,#452,.T.);
#92=ORIENTED_EDGE('',*,*,#453,.T.);
#93=ORIENTED_EDGE('',*,*,#424,.T.);
#94=ORIENTED_EDGE('',*,*,#454,.F.);
#95=ORIENTED_EDGE('',*,*,#455,.T.);
#96=ORIENTED_EDGE('',*,*,#456,.F.);
#97=ORIENTED_EDGE('',*,*,#457,.F.);
#98=ORIENTED_EDGE('',*,*,#458,.T.);
#99=ORIENTED_EDGE('',*,*,#459,.T.);
#100=ORIENTED_EDGE('',*,*,#460,.F.);
#101=ORIENTED_EDGE('',*,*,#461,.F.);
#102=ORIENTED_EDGE('',*,*,#462,.T.);
#103=ORIENTED_EDGE('',*,*,#457,.T.);
#104=ORIENTED_EDGE('',*,*,#463,.F.);
#105=ORIENTED_EDGE('',*,*,#464,.F.);
#106=ORIENTED_EDGE('',*,*,#465,.T.);
#107=ORIENTED_EDGE('',*,*,#461,.T.);
#108=ORIENTED_EDGE('',*,*,#466,.F.);
#109=ORIENTED_EDGE('',*,*,#467,.F.);
#110=ORIENTED_EDGE('',*,*,#468,.T.);
#111=ORIENTED_EDGE('',*,*,#469,.T.);
#112=ORIENTED_EDGE('',*,*,#470,.F.);
#113=ORIENTED_EDGE('',*,*,#471,.F.);
#114=ORIENTED_EDGE('',*,*,#472,.T.);
#115=ORIENTED_EDGE('',*,*,#467,.T.);
#116=ORIENTED_EDGE('',*,*,#473,.F.);
#117=ORIENTED_EDGE('',*,*,#474,.F.);
#118=ORIENTED_EDGE('',*,*,#475,.T.);
#119=ORIENTED_EDGE('',*,*,#471,.T.);
#120=ORIENTED_EDGE('',*,*,#476,.F.);
#121=ORIENTED_EDGE('',*,*,#459,.F.);
#122=ORIENTED_EDGE('',*,*,#477,.T.);
#123=ORIENTED_EDGE('',*,*,#464,.T.);
#124=ORIENTED_EDGE('',*,*,#478,.F.);
#125=ORIENTED_EDGE('',*,*,#469,.F.);
#126=ORIENTED_EDGE('',*,*,#479,.T.);
#127=ORIENTED_EDGE('',*,*,#474,.T.);
#128=ORIENTED_EDGE('',*,*,#431,.F.);
#129=ORIENTED_EDGE('',*,*,#480,.F.);
#130=ORIENTED_EDGE('',*,*,#454,.T.);
#131=ORIENTED_EDGE('',*,*,#427,.T.);
#132=ORIENTED_EDGE('',*,*,#468,.F.);
#133=ORIENTED_EDGE('',*,*,#472,.F.);
#134=ORIENTED_EDGE('',*,*,#475,.F.);
#135=ORIENTED_EDGE('',*,*,#479,.F.);
#136=ORIENTED_EDGE('',*,*,#458,.F.);
#137=ORIENTED_EDGE('',*,*,#462,.F.);
#138=ORIENTED_EDGE('',*,*,#465,.F.);
#139=ORIENTED_EDGE('',*,*,#477,.F.);
#140=ORIENTED_EDGE('',*,*,#440,.T.);
#141=ORIENTED_EDGE('',*,*,#443,.T.);
#142=ORIENTED_EDGE('',*,*,#446,.T.);
#143=ORIENTED_EDGE('',*,*,#423,.T.);
#144=ORIENTED_EDGE('',*,*,#435,.F.);
#145=ORIENTED_EDGE('',*,*,#481,.F.);
#146=ORIENTED_EDGE('',*,*,#450,.F.);
#147=ORIENTED_EDGE('',*,*,#419,.F.);
#148=ORIENTED_EDGE('',*,*,#432,.T.);
#149=ORIENTED_EDGE('',*,*,#425,.F.);
#150=ORIENTED_EDGE('',*,*,#453,.F.);
#151=ORIENTED_EDGE('',*,*,#482,.T.);
#152=ORIENTED_EDGE('',*,*,#434,.T.);
#153=ORIENTED_EDGE('',*,*,#483,.F.);
#154=ORIENTED_EDGE('',*,*,#451,.F.);
#155=ORIENTED_EDGE('',*,*,#481,.T.);
#156=ORIENTED_EDGE('',*,*,#456,.T.);
#157=ORIENTED_EDGE('',*,*,#476,.T.);
#158=ORIENTED_EDGE('',*,*,#463,.T.);
#159=ORIENTED_EDGE('',*,*,#460,.T.);
#160=ORIENTED_EDGE('',*,*,#466,.T.);
#161=ORIENTED_EDGE('',*,*,#478,.T.);
#162=ORIENTED_EDGE('',*,*,#473,.T.);
#163=ORIENTED_EDGE('',*,*,#470,.T.);
#164=ORIENTED_EDGE('',*,*,#433,.T.);
#165=ORIENTED_EDGE('',*,*,#482,.F.);
#166=ORIENTED_EDGE('',*,*,#452,.F.);
#167=ORIENTED_EDGE('',*,*,#483,.T.);
#168=ORIENTED_EDGE('',*,*,#428,.T.);
#169=ORIENTED_EDGE('',*,*,#421,.F.);
#170=ORIENTED_EDGE('',*,*,#445,.F.);
#171=ORIENTED_EDGE('',*,*,#484,.T.);
#172=ORIENTED_EDGE('',*,*,#430,.T.);
#173=ORIENTED_EDGE('',*,*,#485,.F.);
#174=ORIENTED_EDGE('',*,*,#455,.F.);
#175=ORIENTED_EDGE('',*,*,#480,.T.);
#176=ORIENTED_EDGE('',*,*,#429,.T.);
#177=ORIENTED_EDGE('',*,*,#484,.F.);
#178=ORIENTED_EDGE('',*,*,#444,.F.);
#179=ORIENTED_EDGE('',*,*,#485,.T.);
#180=ORIENTED_EDGE('',*,*,#436,.T.);
#181=ORIENTED_EDGE('',*,*,#417,.F.);
#182=ORIENTED_EDGE('',*,*,#449,.F.);
#183=ORIENTED_EDGE('',*,*,#486,.T.);
#184=ORIENTED_EDGE('',*,*,#437,.T.);
#185=ORIENTED_EDGE('',*,*,#486,.F.);
#186=ORIENTED_EDGE('',*,*,#448,.F.);
#187=ORIENTED_EDGE('',*,*,#487,.T.);
#188=ORIENTED_EDGE('',*,*,#438,.T.);
#189=ORIENTED_EDGE('',*,*,#487,.F.);
#190=ORIENTED_EDGE('',*,*,#447,.F.);
#191=ORIENTED_EDGE('',*,*,#441,.T.);
#192=ORIENTED_EDGE('',*,*,#488,.F.);
#193=ORIENTED_EDGE('',*,*,#489,.F.);
#194=ORIENTED_EDGE('',*,*,#490,.T.);
#195=ORIENTED_EDGE('',*,*,#491,.T.);
#196=ORIENTED_EDGE('',*,*,#492,.F.);
#197=ORIENTED_EDGE('',*,*,#493,.T.);
#198=ORIENTED_EDGE('',*,*,#494,.F.);
#199=ORIENTED_EDGE('',*,*,#495,.F.);
#200=ORIENTED_EDGE('',*,*,#489,.T.);
#201=ORIENTED_EDGE('',*,*,#496,.T.);
#202=ORIENTED_EDGE('',*,*,#495,.T.);
#203=ORIENTED_EDGE('',*,*,#497,.T.);
#204=ORIENTED_EDGE('',*,*,#498,.T.);
#205=ORIENTED_EDGE('',*,*,#499,.F.);
#206=ORIENTED_EDGE('',*,*,#500,.T.);
#207=ORIENTED_EDGE('',*,*,#501,.T.);
#208=ORIENTED_EDGE('',*,*,#502,.T.);
#209=ORIENTED_EDGE('',*,*,#503,.T.);
#210=ORIENTED_EDGE('',*,*,#504,.T.);
#211=ORIENTED_EDGE('',*,*,#505,.T.);
#212=ORIENTED_EDGE('',*,*,#506,.F.);
#213=ORIENTED_EDGE('',*,*,#491,.F.);
#214=ORIENTED_EDGE('',*,*,#507,.F.);
#215=ORIENTED_EDGE('',*,*,#508,.F.);
#216=ORIENTED_EDGE('',*,*,#509,.T.);
#217=ORIENTED_EDGE('',*,*,#510,.F.);
#218=ORIENTED_EDGE('',*,*,#511,.F.);
#219=ORIENTED_EDGE('',*,*,#512,.F.);
#220=ORIENTED_EDGE('',*,*,#513,.F.);
#221=ORIENTED_EDGE('',*,*,#514,.F.);
#222=ORIENTED_EDGE('',*,*,#515,.F.);
#223=ORIENTED_EDGE('',*,*,#493,.F.);
#224=ORIENTED_EDGE('',*,*,#516,.T.);
#225=ORIENTED_EDGE('',*,*,#517,.T.);
#226=ORIENTED_EDGE('',*,*,#518,.F.);
#227=ORIENTED_EDGE('',*,*,#501,.F.);
#228=ORIENTED_EDGE('',*,*,#518,.T.);
#229=ORIENTED_EDGE('',*,*,#519,.T.);
#230=ORIENTED_EDGE('',*,*,#520,.F.);
#231=ORIENTED_EDGE('',*,*,#502,.F.);
#232=ORIENTED_EDGE('',*,*,#520,.T.);
#233=ORIENTED_EDGE('',*,*,#521,.T.);
#234=ORIENTED_EDGE('',*,*,#522,.F.);
#235=ORIENTED_EDGE('',*,*,#503,.F.);
#236=ORIENTED_EDGE('',*,*,#522,.T.);
#237=ORIENTED_EDGE('',*,*,#523,.T.);
#238=ORIENTED_EDGE('',*,*,#524,.F.);
#239=ORIENTED_EDGE('',*,*,#504,.F.);
#240=ORIENTED_EDGE('',*,*,#525,.T.);
#241=ORIENTED_EDGE('',*,*,#526,.T.);
#242=ORIENTED_EDGE('',*,*,#527,.F.);
#243=ORIENTED_EDGE('',*,*,#498,.F.);
#244=ORIENTED_EDGE('',*,*,#528,.F.);
#245=ORIENTED_EDGE('',*,*,#529,.F.);
#246=ORIENTED_EDGE('',*,*,#499,.T.);
#247=ORIENTED_EDGE('',*,*,#527,.T.);
#248=ORIENTED_EDGE('',*,*,#529,.T.);
#249=ORIENTED_EDGE('',*,*,#530,.T.);
#250=ORIENTED_EDGE('',*,*,#516,.F.);
#251=ORIENTED_EDGE('',*,*,#500,.F.);
#252=ORIENTED_EDGE('',*,*,#531,.F.);
#253=ORIENTED_EDGE('',*,*,#532,.T.);
#254=ORIENTED_EDGE('',*,*,#533,.T.);
#255=ORIENTED_EDGE('',*,*,#513,.T.);
#256=ORIENTED_EDGE('',*,*,#534,.F.);
#257=ORIENTED_EDGE('',*,*,#535,.F.);
#258=ORIENTED_EDGE('',*,*,#531,.T.);
#259=ORIENTED_EDGE('',*,*,#512,.T.);
#260=ORIENTED_EDGE('',*,*,#536,.F.);
#261=ORIENTED_EDGE('',*,*,#537,.T.);
#262=ORIENTED_EDGE('',*,*,#534,.T.);
#263=ORIENTED_EDGE('',*,*,#511,.T.);
#264=ORIENTED_EDGE('',*,*,#538,.F.);
#265=ORIENTED_EDGE('',*,*,#539,.T.);
#266=ORIENTED_EDGE('',*,*,#536,.T.);
#267=ORIENTED_EDGE('',*,*,#510,.T.);
#268=ORIENTED_EDGE('',*,*,#540,.F.);
#269=ORIENTED_EDGE('',*,*,#538,.T.);
#270=ORIENTED_EDGE('',*,*,#509,.F.);
#271=ORIENTED_EDGE('',*,*,#541,.F.);
#272=ORIENTED_EDGE('',*,*,#542,.F.);
#273=ORIENTED_EDGE('',*,*,#543,.T.);
#274=ORIENTED_EDGE('',*,*,#541,.T.);
#275=ORIENTED_EDGE('',*,*,#508,.T.);
#276=ORIENTED_EDGE('',*,*,#544,.F.);
#277=ORIENTED_EDGE('',*,*,#545,.T.);
#278=ORIENTED_EDGE('',*,*,#542,.T.);
#279=ORIENTED_EDGE('',*,*,#507,.T.);
#280=ORIENTED_EDGE('',*,*,#490,.F.);
#281=ORIENTED_EDGE('',*,*,#505,.F.);
#282=ORIENTED_EDGE('',*,*,#524,.T.);
#283=ORIENTED_EDGE('',*,*,#546,.F.);
#284=ORIENTED_EDGE('',*,*,#525,.F.);
#285=ORIENTED_EDGE('',*,*,#497,.F.);
#286=ORIENTED_EDGE('',*,*,#494,.T.);
#287=ORIENTED_EDGE('',*,*,#515,.T.);
#288=ORIENTED_EDGE('',*,*,#533,.F.);
#289=ORIENTED_EDGE('',*,*,#547,.T.);
#290=ORIENTED_EDGE('',*,*,#544,.T.);
#291=ORIENTED_EDGE('',*,*,#514,.T.);
#292=ORIENTED_EDGE('',*,*,#547,.F.);
#293=ORIENTED_EDGE('',*,*,#532,.F.);
#294=ORIENTED_EDGE('',*,*,#535,.T.);
#295=ORIENTED_EDGE('',*,*,#537,.F.);
#296=ORIENTED_EDGE('',*,*,#539,.F.);
#297=ORIENTED_EDGE('',*,*,#540,.T.);
#298=ORIENTED_EDGE('',*,*,#543,.F.);
#299=ORIENTED_EDGE('',*,*,#545,.F.);
#300=ORIENTED_EDGE('',*,*,#523,.F.);
#301=ORIENTED_EDGE('',*,*,#521,.F.);
#302=ORIENTED_EDGE('',*,*,#519,.F.);
#303=ORIENTED_EDGE('',*,*,#517,.F.);
#304=ORIENTED_EDGE('',*,*,#530,.F.);
#305=ORIENTED_EDGE('',*,*,#528,.T.);
#306=ORIENTED_EDGE('',*,*,#526,.F.);
#307=ORIENTED_EDGE('',*,*,#546,.T.);
#308=ORIENTED_EDGE('',*,*,#488,.T.);
#309=ORIENTED_EDGE('',*,*,#506,.T.);
#310=ORIENTED_EDGE('',*,*,#492,.T.);
#311=ORIENTED_EDGE('',*,*,#496,.F.);
#312=ORIENTED_EDGE('',*,*,#548,.F.);
#313=ORIENTED_EDGE('',*,*,#549,.T.);
#314=ORIENTED_EDGE('',*,*,#550,.F.);
#315=ORIENTED_EDGE('',*,*,#551,.F.);
#316=ORIENTED_EDGE('',*,*,#552,.F.);
#317=ORIENTED_EDGE('',*,*,#553,.F.);
#318=ORIENTED_EDGE('',*,*,#554,.T.);
#319=ORIENTED_EDGE('',*,*,#555,.T.);
#320=ORIENTED_EDGE('',*,*,#553,.T.);
#321=ORIENTED_EDGE('',*,*,#556,.T.);
#322=ORIENTED_EDGE('',*,*,#551,.T.);
#323=ORIENTED_EDGE('',*,*,#557,.T.);
#324=ORIENTED_EDGE('',*,*,#558,.T.);
#325=ORIENTED_EDGE('',*,*,#559,.F.);
#326=ORIENTED_EDGE('',*,*,#560,.T.);
#327=ORIENTED_EDGE('',*,*,#561,.T.);
#328=ORIENTED_EDGE('',*,*,#562,.F.);
#329=ORIENTED_EDGE('',*,*,#555,.F.);
#330=ORIENTED_EDGE('',*,*,#563,.F.);
#331=ORIENTED_EDGE('',*,*,#564,.F.);
#332=ORIENTED_EDGE('',*,*,#565,.T.);
#333=ORIENTED_EDGE('',*,*,#566,.F.);
#334=ORIENTED_EDGE('',*,*,#567,.F.);
#335=ORIENTED_EDGE('',*,*,#549,.F.);
#336=ORIENTED_EDGE('',*,*,#568,.F.);
#337=ORIENTED_EDGE('',*,*,#569,.T.);
#338=ORIENTED_EDGE('',*,*,#570,.T.);
#339=ORIENTED_EDGE('',*,*,#566,.T.);
#340=ORIENTED_EDGE('',*,*,#568,.T.);
#341=ORIENTED_EDGE('',*,*,#571,.T.);
#342=ORIENTED_EDGE('',*,*,#572,.F.);
#343=ORIENTED_EDGE('',*,*,#573,.T.);
#344=ORIENTED_EDGE('',*,*,#572,.T.);
#345=ORIENTED_EDGE('',*,*,#574,.F.);
#346=ORIENTED_EDGE('',*,*,#575,.F.);
#347=ORIENTED_EDGE('',*,*,#576,.T.);
#348=ORIENTED_EDGE('',*,*,#575,.T.);
#349=ORIENTED_EDGE('',*,*,#577,.T.);
#350=ORIENTED_EDGE('',*,*,#578,.F.);
#351=ORIENTED_EDGE('',*,*,#579,.T.);
#352=ORIENTED_EDGE('',*,*,#580,.F.);
#353=ORIENTED_EDGE('',*,*,#581,.T.);
#354=ORIENTED_EDGE('',*,*,#578,.T.);
#355=ORIENTED_EDGE('',*,*,#564,.T.);
#356=ORIENTED_EDGE('',*,*,#582,.T.);
#357=ORIENTED_EDGE('',*,*,#583,.T.);
#358=ORIENTED_EDGE('',*,*,#584,.F.);
#359=ORIENTED_EDGE('',*,*,#558,.F.);
#360=ORIENTED_EDGE('',*,*,#584,.T.);
#361=ORIENTED_EDGE('',*,*,#585,.T.);
#362=ORIENTED_EDGE('',*,*,#586,.F.);
#363=ORIENTED_EDGE('',*,*,#587,.T.);
#364=ORIENTED_EDGE('',*,*,#586,.T.);
#365=ORIENTED_EDGE('',*,*,#588,.F.);
#366=ORIENTED_EDGE('',*,*,#589,.F.);
#367=ORIENTED_EDGE('',*,*,#590,.T.);
#368=ORIENTED_EDGE('',*,*,#589,.T.);
#369=ORIENTED_EDGE('',*,*,#591,.T.);
#370=ORIENTED_EDGE('',*,*,#592,.F.);
#371=ORIENTED_EDGE('',*,*,#593,.T.);
#372=ORIENTED_EDGE('',*,*,#592,.T.);
#373=ORIENTED_EDGE('',*,*,#594,.T.);
#374=ORIENTED_EDGE('',*,*,#595,.F.);
#375=ORIENTED_EDGE('',*,*,#560,.F.);
#376=ORIENTED_EDGE('',*,*,#595,.T.);
#377=ORIENTED_EDGE('',*,*,#596,.T.);
#378=ORIENTED_EDGE('',*,*,#582,.F.);
#379=ORIENTED_EDGE('',*,*,#557,.F.);
#380=ORIENTED_EDGE('',*,*,#550,.T.);
#381=ORIENTED_EDGE('',*,*,#567,.T.);
#382=ORIENTED_EDGE('',*,*,#570,.F.);
#383=ORIENTED_EDGE('',*,*,#597,.F.);
#384=ORIENTED_EDGE('',*,*,#580,.T.);
#385=ORIENTED_EDGE('',*,*,#563,.T.);
#386=ORIENTED_EDGE('',*,*,#554,.F.);
#387=ORIENTED_EDGE('',*,*,#561,.F.);
#388=ORIENTED_EDGE('',*,*,#565,.F.);
#389=ORIENTED_EDGE('',*,*,#577,.F.);
#390=ORIENTED_EDGE('',*,*,#574,.T.);
#391=ORIENTED_EDGE('',*,*,#571,.F.);
#392=ORIENTED_EDGE('',*,*,#590,.F.);
#393=ORIENTED_EDGE('',*,*,#593,.F.);
#394=ORIENTED_EDGE('',*,*,#559,.T.);
#395=ORIENTED_EDGE('',*,*,#587,.F.);
#396=ORIENTED_EDGE('',*,*,#576,.F.);
#397=ORIENTED_EDGE('',*,*,#579,.F.);
#398=ORIENTED_EDGE('',*,*,#598,.T.);
#399=ORIENTED_EDGE('',*,*,#573,.F.);
#400=ORIENTED_EDGE('',*,*,#599,.F.);
#401=ORIENTED_EDGE('',*,*,#591,.F.);
#402=ORIENTED_EDGE('',*,*,#588,.T.);
#403=ORIENTED_EDGE('',*,*,#585,.F.);
#404=ORIENTED_EDGE('',*,*,#598,.F.);
#405=ORIENTED_EDGE('',*,*,#581,.F.);
#406=ORIENTED_EDGE('',*,*,#597,.T.);
#407=ORIENTED_EDGE('',*,*,#569,.F.);
#408=ORIENTED_EDGE('',*,*,#596,.F.);
#409=ORIENTED_EDGE('',*,*,#594,.F.);
#410=ORIENTED_EDGE('',*,*,#599,.T.);
#411=ORIENTED_EDGE('',*,*,#583,.F.);
#412=ORIENTED_EDGE('',*,*,#552,.T.);
#413=ORIENTED_EDGE('',*,*,#562,.T.);
#414=ORIENTED_EDGE('',*,*,#548,.T.);
#415=ORIENTED_EDGE('',*,*,#556,.F.);
#416=EDGE_CURVE('',#600,#601,#720,.T.);
#417=EDGE_CURVE('',#600,#602,#721,.T.);
#418=EDGE_CURVE('',#602,#603,#722,.T.);
#419=EDGE_CURVE('',#603,#601,#723,.T.);
#420=EDGE_CURVE('',#604,#605,#724,.T.);
#421=EDGE_CURVE('',#605,#606,#725,.T.);
#422=EDGE_CURVE('',#607,#606,#726,.T.);
#423=EDGE_CURVE('',#604,#607,#727,.T.);
#424=EDGE_CURVE('',#608,#609,#728,.T.);
#425=EDGE_CURVE('',#608,#610,#729,.T.);
#426=EDGE_CURVE('',#611,#610,#730,.T.);
#427=EDGE_CURVE('',#609,#611,#731,.T.);
#428=EDGE_CURVE('',#612,#606,#732,.T.);
#429=EDGE_CURVE('',#613,#612,#733,.T.);
#430=EDGE_CURVE('',#614,#613,#734,.T.);
#431=EDGE_CURVE('',#614,#611,#735,.T.);
#432=EDGE_CURVE('',#615,#610,#736,.T.);
#433=EDGE_CURVE('',#616,#615,#737,.T.);
#434=EDGE_CURVE('',#617,#616,#738,.T.);
#435=EDGE_CURVE('',#617,#603,#739,.T.);
#436=EDGE_CURVE('',#618,#602,#740,.T.);
#437=EDGE_CURVE('',#619,#618,#741,.T.);
#438=EDGE_CURVE('',#620,#619,#742,.T.);
#439=EDGE_CURVE('',#621,#620,#743,.T.);
#440=EDGE_CURVE('',#607,#621,#744,.T.);
#441=EDGE_CURVE('',#622,#620,#745,.T.);
#442=EDGE_CURVE('',#623,#622,#746,.T.);
#443=EDGE_CURVE('',#621,#623,#747,.T.);
#444=EDGE_CURVE('',#624,#625,#748,.T.);
#445=EDGE_CURVE('',#625,#605,#749,.T.);
#446=EDGE_CURVE('',#623,#604,#750,.T.);
#447=EDGE_CURVE('',#622,#626,#751,.T.);
#448=EDGE_CURVE('',#626,#627,#752,.T.);
#449=EDGE_CURVE('',#627,#600,#753,.T.);
#450=EDGE_CURVE('',#601,#628,#754,.T.);
#451=EDGE_CURVE('',#628,#629,#755,.T.);
#452=EDGE_CURVE('',#629,#630,#756,.T.);
#453=EDGE_CURVE('',#630,#608,#757,.T.);
#454=EDGE_CURVE('',#631,#609,#758,.T.);
#455=EDGE_CURVE('',#631,#624,#759,.T.);
#456=EDGE_CURVE('',#632,#633,#760,.T.);
#457=EDGE_CURVE('',#634,#632,#761,.T.);
#458=EDGE_CURVE('',#634,#635,#762,.T.);
#459=EDGE_CURVE('',#635,#633,#763,.T.);
#460=EDGE_CURVE('',#636,#632,#764,.T.);
#461=EDGE_CURVE('',#637,#636,#765,.T.);
#462=EDGE_CURVE('',#637,#634,#766,.T.);
#463=EDGE_CURVE('',#638,#636,#767,.T.);
#464=EDGE_CURVE('',#639,#638,#768,.T.);
#465=EDGE_CURVE('',#639,#637,#769,.T.);
#466=EDGE_CURVE('',#640,#641,#770,.T.);
#467=EDGE_CURVE('',#642,#640,#771,.T.);
#468=EDGE_CURVE('',#642,#643,#772,.T.);
#469=EDGE_CURVE('',#643,#641,#773,.T.);
#470=EDGE_CURVE('',#644,#640,#774,.T.);
#471=EDGE_CURVE('',#645,#644,#775,.T.);
#472=EDGE_CURVE('',#645,#642,#776,.T.);
#473=EDGE_CURVE('',#646,#644,#777,.T.);
#474=EDGE_CURVE('',#647,#646,#778,.T.);
#475=EDGE_CURVE('',#647,#645,#779,.T.);
#476=EDGE_CURVE('',#633,#638,#780,.T.);
#477=EDGE_CURVE('',#635,#639,#781,.T.);
#478=EDGE_CURVE('',#641,#646,#782,.T.);
#479=EDGE_CURVE('',#643,#647,#783,.T.);
#480=EDGE_CURVE('',#631,#614,#784,.T.);
#481=EDGE_CURVE('',#628,#617,#785,.T.);
#482=EDGE_CURVE('',#630,#615,#786,.T.);
#483=EDGE_CURVE('',#629,#616,#787,.T.);
#484=EDGE_CURVE('',#625,#612,#788,.T.);
#485=EDGE_CURVE('',#624,#613,#789,.T.);
#486=EDGE_CURVE('',#627,#618,#790,.T.);
#487=EDGE_CURVE('',#626,#619,#791,.T.);
#488=EDGE_CURVE('',#648,#649,#792,.T.);
#489=EDGE_CURVE('',#650,#648,#793,.T.);
#490=EDGE_CURVE('',#650,#651,#794,.T.);
#491=EDGE_CURVE('',#651,#649,#795,.T.);
#492=EDGE_CURVE('',#652,#653,#796,.T.);
#493=EDGE_CURVE('',#652,#654,#797,.T.);
#494=EDGE_CURVE('',#655,#654,#798,.T.);
#495=EDGE_CURVE('',#653,#655,#799,.T.);
#496=EDGE_CURVE('',#648,#653,#800,.T.);
#497=EDGE_CURVE('',#655,#656,#801,.T.);
#498=EDGE_CURVE('',#656,#657,#802,.T.);
#499=EDGE_CURVE('',#658,#657,#22,.T.);
#500=EDGE_CURVE('',#658,#659,#803,.T.);
#501=EDGE_CURVE('',#659,#660,#804,.T.);
#502=EDGE_CURVE('',#660,#661,#805,.T.);
#503=EDGE_CURVE('',#661,#662,#23,.T.);
#504=EDGE_CURVE('',#662,#663,#806,.T.);
#505=EDGE_CURVE('',#663,#650,#807,.T.);
#506=EDGE_CURVE('',#649,#652,#808,.T.);
#507=EDGE_CURVE('',#664,#651,#809,.T.);
#508=EDGE_CURVE('',#665,#664,#810,.T.);
#509=EDGE_CURVE('',#665,#666,#24,.T.);
#510=EDGE_CURVE('',#667,#666,#811,.T.);
#511=EDGE_CURVE('',#668,#667,#812,.T.);
#512=EDGE_CURVE('',#669,#668,#813,.T.);
#513=EDGE_CURVE('',#670,#669,#25,.T.);
#514=EDGE_CURVE('',#671,#670,#814,.T.);
#515=EDGE_CURVE('',#654,#671,#815,.T.);
#516=EDGE_CURVE('',#659,#672,#816,.T.);
#517=EDGE_CURVE('',#672,#673,#817,.T.);
#518=EDGE_CURVE('',#660,#673,#818,.T.);
#519=EDGE_CURVE('',#673,#674,#819,.T.);
#520=EDGE_CURVE('',#661,#674,#820,.T.);
#521=EDGE_CURVE('',#674,#675,#26,.T.);
#522=EDGE_CURVE('',#662,#675,#821,.T.);
#523=EDGE_CURVE('',#675,#676,#822,.T.);
#524=EDGE_CURVE('',#663,#676,#823,.T.);
#525=EDGE_CURVE('',#656,#677,#824,.T.);
#526=EDGE_CURVE('',#677,#678,#825,.T.);
#527=EDGE_CURVE('',#657,#678,#826,.T.);
#528=EDGE_CURVE('',#679,#678,#27,.T.);
#529=EDGE_CURVE('',#658,#679,#827,.T.);
#530=EDGE_CURVE('',#679,#672,#828,.T.);
#531=EDGE_CURVE('',#680,#669,#829,.T.);
#532=EDGE_CURVE('',#680,#681,#28,.T.);
#533=EDGE_CURVE('',#681,#670,#830,.T.);
#534=EDGE_CURVE('',#682,#668,#831,.T.);
#535=EDGE_CURVE('',#680,#682,#832,.T.);
#536=EDGE_CURVE('',#683,#667,#833,.T.);
#537=EDGE_CURVE('',#683,#682,#834,.T.);
#538=EDGE_CURVE('',#684,#666,#835,.T.);
#539=EDGE_CURVE('',#684,#683,#836,.T.);
#540=EDGE_CURVE('',#684,#685,#29,.T.);
#541=EDGE_CURVE('',#685,#665,#837,.T.);
#542=EDGE_CURVE('',#686,#664,#838,.T.);
#543=EDGE_CURVE('',#686,#685,#839,.T.);
#544=EDGE_CURVE('',#687,#671,#840,.T.);
#545=EDGE_CURVE('',#687,#686,#841,.T.);
#546=EDGE_CURVE('',#677,#676,#842,.T.);
#547=EDGE_CURVE('',#681,#687,#843,.T.);
#548=EDGE_CURVE('',#688,#689,#844,.T.);
#549=EDGE_CURVE('',#688,#690,#845,.T.);
#550=EDGE_CURVE('',#691,#690,#846,.T.);
#551=EDGE_CURVE('',#689,#691,#847,.T.);
#552=EDGE_CURVE('',#692,#693,#848,.T.);
#553=EDGE_CURVE('',#694,#692,#849,.T.);
#554=EDGE_CURVE('',#694,#695,#850,.T.);
#555=EDGE_CURVE('',#695,#693,#851,.T.);
#556=EDGE_CURVE('',#692,#689,#852,.T.);
#557=EDGE_CURVE('',#691,#696,#853,.T.);
#558=EDGE_CURVE('',#696,#697,#854,.T.);
#559=EDGE_CURVE('',#698,#697,#855,.T.);
#560=EDGE_CURVE('',#698,#699,#856,.T.);
#561=EDGE_CURVE('',#699,#694,#857,.T.);
#562=EDGE_CURVE('',#693,#688,#858,.T.);
#563=EDGE_CURVE('',#700,#695,#859,.T.);
#564=EDGE_CURVE('',#701,#700,#860,.T.);
#565=EDGE_CURVE('',#701,#702,#861,.T.);
#566=EDGE_CURVE('',#703,#702,#862,.T.);
#567=EDGE_CURVE('',#690,#703,#863,.T.);
#568=EDGE_CURVE('',#704,#702,#864,.T.);
#569=EDGE_CURVE('',#704,#705,#865,.T.);
#570=EDGE_CURVE('',#705,#703,#866,.T.);
#571=EDGE_CURVE('',#702,#706,#867,.T.);
#572=EDGE_CURVE('',#707,#706,#868,.T.);
#573=EDGE_CURVE('',#707,#704,#869,.T.);
#574=EDGE_CURVE('',#708,#706,#870,.T.);
#575=EDGE_CURVE('',#709,#708,#871,.T.);
#576=EDGE_CURVE('',#709,#707,#872,.T.);
#577=EDGE_CURVE('',#708,#701,#873,.T.);
#578=EDGE_CURVE('',#710,#701,#874,.T.);
#579=EDGE_CURVE('',#710,#709,#875,.T.);
#580=EDGE_CURVE('',#711,#700,#876,.T.);
#581=EDGE_CURVE('',#711,#710,#877,.T.);
#582=EDGE_CURVE('',#696,#712,#878,.T.);
#583=EDGE_CURVE('',#712,#713,#879,.T.);
#584=EDGE_CURVE('',#697,#713,#880,.T.);
#585=EDGE_CURVE('',#713,#714,#881,.T.);
#586=EDGE_CURVE('',#715,#714,#882,.T.);
#587=EDGE_CURVE('',#715,#697,#883,.T.);
#588=EDGE_CURVE('',#716,#714,#884,.T.);
#589=EDGE_CURVE('',#717,#716,#885,.T.);
#590=EDGE_CURVE('',#717,#715,#886,.T.);
#591=EDGE_CURVE('',#716,#718,#887,.T.);
#592=EDGE_CURVE('',#698,#718,#888,.T.);
#593=EDGE_CURVE('',#698,#717,#889,.T.);
#594=EDGE_CURVE('',#718,#719,#890,.T.);
#595=EDGE_CURVE('',#699,#719,#891,.T.);
#596=EDGE_CURVE('',#719,#712,#892,.T.);
#597=EDGE_CURVE('',#711,#705,#893,.T.);
#598=EDGE_CURVE('',#710,#704,#894,.T.);
#599=EDGE_CURVE('',#718,#713,#895,.T.);
#600=VERTEX_POINT('',#1819);
#601=VERTEX_POINT('',#1820);
#602=VERTEX_POINT('',#1822);
#603=VERTEX_POINT('',#1824);
#604=VERTEX_POINT('',#1828);
#605=VERTEX_POINT('',#1829);
#606=VERTEX_POINT('',#1831);
#607=VERTEX_POINT('',#1833);
#608=VERTEX_POINT('',#1837);
#609=VERTEX_POINT('',#1838);
#610=VERTEX_POINT('',#1840);
#611=VERTEX_POINT('',#1842);
#612=VERTEX_POINT('',#1846);
#613=VERTEX_POINT('',#1848);
#614=VERTEX_POINT('',#1850);
#615=VERTEX_POINT('',#1853);
#616=VERTEX_POINT('',#1855);
#617=VERTEX_POINT('',#1857);
#618=VERTEX_POINT('',#1860);
#619=VERTEX_POINT('',#1862);
#620=VERTEX_POINT('',#1864);
#621=VERTEX_POINT('',#1866);
#622=VERTEX_POINT('',#1870);
#623=VERTEX_POINT('',#1872);
#624=VERTEX_POINT('',#1876);
#625=VERTEX_POINT('',#1877);
#626=VERTEX_POINT('',#1881);
#627=VERTEX_POINT('',#1883);
#628=VERTEX_POINT('',#1886);
#629=VERTEX_POINT('',#1888);
#630=VERTEX_POINT('',#1890);
#631=VERTEX_POINT('',#1893);
#632=VERTEX_POINT('',#1897);
#633=VERTEX_POINT('',#1898);
#634=VERTEX_POINT('',#1900);
#635=VERTEX_POINT('',#1902);
#636=VERTEX_POINT('',#1906);
#637=VERTEX_POINT('',#1908);
#638=VERTEX_POINT('',#1912);
#639=VERTEX_POINT('',#1914);
#640=VERTEX_POINT('',#1918);
#641=VERTEX_POINT('',#1919);
#642=VERTEX_POINT('',#1921);
#643=VERTEX_POINT('',#1923);
#644=VERTEX_POINT('',#1927);
#645=VERTEX_POINT('',#1929);
#646=VERTEX_POINT('',#1933);
#647=VERTEX_POINT('',#1935);
#648=VERTEX_POINT('',#1966);
#649=VERTEX_POINT('',#1967);
#650=VERTEX_POINT('',#1969);
#651=VERTEX_POINT('',#1971);
#652=VERTEX_POINT('',#1975);
#653=VERTEX_POINT('',#1976);
#654=VERTEX_POINT('',#1978);
#655=VERTEX_POINT('',#1980);
#656=VERTEX_POINT('',#1985);
#657=VERTEX_POINT('',#1987);
#658=VERTEX_POINT('',#1989);
#659=VERTEX_POINT('',#1991);
#660=VERTEX_POINT('',#1993);
#661=VERTEX_POINT('',#1995);
#662=VERTEX_POINT('',#1997);
#663=VERTEX_POINT('',#1999);
#664=VERTEX_POINT('',#2004);
#665=VERTEX_POINT('',#2006);
#666=VERTEX_POINT('',#2008);
#667=VERTEX_POINT('',#2010);
#668=VERTEX_POINT('',#2012);
#669=VERTEX_POINT('',#2014);
#670=VERTEX_POINT('',#2016);
#671=VERTEX_POINT('',#2018);
#672=VERTEX_POINT('',#2022);
#673=VERTEX_POINT('',#2024);
#674=VERTEX_POINT('',#2028);
#675=VERTEX_POINT('',#2032);
#676=VERTEX_POINT('',#2036);
#677=VERTEX_POINT('',#2040);
#678=VERTEX_POINT('',#2042);
#679=VERTEX_POINT('',#2046);
#680=VERTEX_POINT('',#2052);
#681=VERTEX_POINT('',#2054);
#682=VERTEX_POINT('',#2058);
#683=VERTEX_POINT('',#2062);
#684=VERTEX_POINT('',#2066);
#685=VERTEX_POINT('',#2070);
#686=VERTEX_POINT('',#2074);
#687=VERTEX_POINT('',#2078);
#688=VERTEX_POINT('',#2089);
#689=VERTEX_POINT('',#2090);
#690=VERTEX_POINT('',#2092);
#691=VERTEX_POINT('',#2094);
#692=VERTEX_POINT('',#2098);
#693=VERTEX_POINT('',#2099);
#694=VERTEX_POINT('',#2101);
#695=VERTEX_POINT('',#2103);
#696=VERTEX_POINT('',#2108);
#697=VERTEX_POINT('',#2110);
#698=VERTEX_POINT('',#2112);
#699=VERTEX_POINT('',#2114);
#700=VERTEX_POINT('',#2119);
#701=VERTEX_POINT('',#2121);
#702=VERTEX_POINT('',#2123);
#703=VERTEX_POINT('',#2125);
#704=VERTEX_POINT('',#2129);
#705=VERTEX_POINT('',#2131);
#706=VERTEX_POINT('',#2135);
#707=VERTEX_POINT('',#2137);
#708=VERTEX_POINT('',#2141);
#709=VERTEX_POINT('',#2143);
#710=VERTEX_POINT('',#2148);
#711=VERTEX_POINT('',#2152);
#712=VERTEX_POINT('',#2156);
#713=VERTEX_POINT('',#2158);
#714=VERTEX_POINT('',#2162);
#715=VERTEX_POINT('',#2164);
#716=VERTEX_POINT('',#2168);
#717=VERTEX_POINT('',#2170);
#718=VERTEX_POINT('',#2174);
#719=VERTEX_POINT('',#2179);
#720=LINE('',#1818,#896);
#721=LINE('',#1821,#897);
#722=LINE('',#1823,#898);
#723=LINE('',#1825,#899);
#724=LINE('',#1827,#900);
#725=LINE('',#1830,#901);
#726=LINE('',#1832,#902);
#727=LINE('',#1834,#903);
#728=LINE('',#1836,#904);
#729=LINE('',#1839,#905);
#730=LINE('',#1841,#906);
#731=LINE('',#1843,#907);
#732=LINE('',#1845,#908);
#733=LINE('',#1847,#909);
#734=LINE('',#1849,#910);
#735=LINE('',#1851,#911);
#736=LINE('',#1852,#912);
#737=LINE('',#1854,#913);
#738=LINE('',#1856,#914);
#739=LINE('',#1858,#915);
#740=LINE('',#1859,#916);
#741=LINE('',#1861,#917);
#742=LINE('',#1863,#918);
#743=LINE('',#1865,#919);
#744=LINE('',#1867,#920);
#745=LINE('',#1869,#921);
#746=LINE('',#1871,#922);
#747=LINE('',#1873,#923);
#748=LINE('',#1875,#924);
#749=LINE('',#1878,#925);
#750=LINE('',#1879,#926);
#751=LINE('',#1880,#927);
#752=LINE('',#1882,#928);
#753=LINE('',#1884,#929);
#754=LINE('',#1885,#930);
#755=LINE('',#1887,#931);
#756=LINE('',#1889,#932);
#757=LINE('',#1891,#933);
#758=LINE('',#1892,#934);
#759=LINE('',#1894,#935);
#760=LINE('',#1896,#936);
#761=LINE('',#1899,#937);
#762=LINE('',#1901,#938);
#763=LINE('',#1903,#939);
#764=LINE('',#1905,#940);
#765=LINE('',#1907,#941);
#766=LINE('',#1909,#942);
#767=LINE('',#1911,#943);
#768=LINE('',#1913,#944);
#769=LINE('',#1915,#945);
#770=LINE('',#1917,#946);
#771=LINE('',#1920,#947);
#772=LINE('',#1922,#948);
#773=LINE('',#1924,#949);
#774=LINE('',#1926,#950);
#775=LINE('',#1928,#951);
#776=LINE('',#1930,#952);
#777=LINE('',#1932,#953);
#778=LINE('',#1934,#954);
#779=LINE('',#1936,#955);
#780=LINE('',#1938,#956);
#781=LINE('',#1939,#957);
#782=LINE('',#1941,#958);
#783=LINE('',#1942,#959);
#784=LINE('',#1944,#960);
#785=LINE('',#1947,#961);
#786=LINE('',#1949,#962);
#787=LINE('',#1951,#963);
#788=LINE('',#1954,#964);
#789=LINE('',#1956,#965);
#790=LINE('',#1959,#966);
#791=LINE('',#1961,#967);
#792=LINE('',#1965,#968);
#793=LINE('',#1968,#969);
#794=LINE('',#1970,#970);
#795=LINE('',#1972,#971);
#796=LINE('',#1974,#972);
#797=LINE('',#1977,#973);
#798=LINE('',#1979,#974);
#799=LINE('',#1981,#975);
#800=LINE('',#1983,#976);
#801=LINE('',#1984,#977);
#802=LINE('',#1986,#978);
#803=LINE('',#1990,#979);
#804=LINE('',#1992,#980);
#805=LINE('',#1994,#981);
#806=LINE('',#1998,#982);
#807=LINE('',#2000,#983);
#808=LINE('',#2002,#984);
#809=LINE('',#2003,#985);
#810=LINE('',#2005,#986);
#811=LINE('',#2009,#987);
#812=LINE('',#2011,#988);
#813=LINE('',#2013,#989);
#814=LINE('',#2017,#990);
#815=LINE('',#2019,#991);
#816=LINE('',#2021,#992);
#817=LINE('',#2023,#993);
#818=LINE('',#2025,#994);
#819=LINE('',#2027,#995);
#820=LINE('',#2029,#996);
#821=LINE('',#2033,#997);
#822=LINE('',#2035,#998);
#823=LINE('',#2037,#999);
#824=LINE('',#2039,#1000);
#825=LINE('',#2041,#1001);
#826=LINE('',#2043,#1002);
#827=LINE('',#2047,#1003);
#828=LINE('',#2049,#1004);
#829=LINE('',#2051,#1005);
#830=LINE('',#2055,#1006);
#831=LINE('',#2057,#1007);
#832=LINE('',#2059,#1008);
#833=LINE('',#2061,#1009);
#834=LINE('',#2063,#1010);
#835=LINE('',#2065,#1011);
#836=LINE('',#2067,#1012);
#837=LINE('',#2071,#1013);
#838=LINE('',#2073,#1014);
#839=LINE('',#2075,#1015);
#840=LINE('',#2077,#1016);
#841=LINE('',#2079,#1017);
#842=LINE('',#2080,#1018);
#843=LINE('',#2082,#1019);
#844=LINE('',#2088,#1020);
#845=LINE('',#2091,#1021);
#846=LINE('',#2093,#1022);
#847=LINE('',#2095,#1023);
#848=LINE('',#2097,#1024);
#849=LINE('',#2100,#1025);
#850=LINE('',#2102,#1026);
#851=LINE('',#2104,#1027);
#852=LINE('',#2106,#1028);
#853=LINE('',#2107,#1029);
#854=LINE('',#2109,#1030);
#855=LINE('',#2111,#1031);
#856=LINE('',#2113,#1032);
#857=LINE('',#2115,#1033);
#858=LINE('',#2117,#1034);
#859=LINE('',#2118,#1035);
#860=LINE('',#2120,#1036);
#861=LINE('',#2122,#1037);
#862=LINE('',#2124,#1038);
#863=LINE('',#2126,#1039);
#864=LINE('',#2128,#1040);
#865=LINE('',#2130,#1041);
#866=LINE('',#2132,#1042);
#867=LINE('',#2134,#1043);
#868=LINE('',#2136,#1044);
#869=LINE('',#2138,#1045);
#870=LINE('',#2140,#1046);
#871=LINE('',#2142,#1047);
#872=LINE('',#2144,#1048);
#873=LINE('',#2146,#1049);
#874=LINE('',#2147,#1050);
#875=LINE('',#2149,#1051);
#876=LINE('',#2151,#1052);
#877=LINE('',#2153,#1053);
#878=LINE('',#2155,#1054);
#879=LINE('',#2157,#1055);
#880=LINE('',#2159,#1056);
#881=LINE('',#2161,#1057);
#882=LINE('',#2163,#1058);
#883=LINE('',#2165,#1059);
#884=LINE('',#2167,#1060);
#885=LINE('',#2169,#1061);
#886=LINE('',#2171,#1062);
#887=LINE('',#2173,#1063);
#888=LINE('',#2175,#1064);
#889=LINE('',#2176,#1065);
#890=LINE('',#2178,#1066);
#891=LINE('',#2180,#1067);
#892=LINE('',#2182,#1068);
#893=LINE('',#2183,#1069);
#894=LINE('',#2187,#1070);
#895=LINE('',#2189,#1071);
#896=VECTOR('',#1480,39.3700787401575);
#897=VECTOR('',#1481,39.3700787401575);
#898=VECTOR('',#1482,39.3700787401575);
#899=VECTOR('',#1483,39.3700787401575);
#900=VECTOR('',#1486,39.3700787401575);
#901=VECTOR('',#1487,39.3700787401575);
#902=VECTOR('',#1488,39.3700787401575);
#903=VECTOR('',#1489,39.3700787401575);
#904=VECTOR('',#1492,39.3700787401575);
#905=VECTOR('',#1493,39.3700787401575);
#906=VECTOR('',#1494,39.3700787401575);
#907=VECTOR('',#1495,39.3700787401575);
#908=VECTOR('',#1498,39.3700787401575);
#909=VECTOR('',#1499,39.3700787401575);
#910=VECTOR('',#1500,39.3700787401575);
#911=VECTOR('',#1501,39.3700787401575);
#912=VECTOR('',#1502,39.3700787401575);
#913=VECTOR('',#1503,39.3700787401575);
#914=VECTOR('',#1504,39.3700787401575);
#915=VECTOR('',#1505,39.3700787401575);
#916=VECTOR('',#1506,39.3700787401575);
#917=VECTOR('',#1507,39.3700787401575);
#918=VECTOR('',#1508,39.3700787401575);
#919=VECTOR('',#1509,39.3700787401575);
#920=VECTOR('',#1510,39.3700787401575);
#921=VECTOR('',#1513,39.3700787401575);
#922=VECTOR('',#1514,39.3700787401575);
#923=VECTOR('',#1515,39.3700787401575);
#924=VECTOR('',#1518,39.3700787401575);
#925=VECTOR('',#1519,39.3700787401575);
#926=VECTOR('',#1520,39.3700787401575);
#927=VECTOR('',#1521,39.3700787401575);
#928=VECTOR('',#1522,39.3700787401575);
#929=VECTOR('',#1523,39.3700787401575);
#930=VECTOR('',#1524,39.3700787401575);
#931=VECTOR('',#1525,39.3700787401575);
#932=VECTOR('',#1526,39.3700787401575);
#933=VECTOR('',#1527,39.3700787401575);
#934=VECTOR('',#1528,39.3700787401575);
#935=VECTOR('',#1529,39.3700787401575);
#936=VECTOR('',#1532,39.3700787401575);
#937=VECTOR('',#1533,39.3700787401575);
#938=VECTOR('',#1534,39.3700787401575);
#939=VECTOR('',#1535,39.3700787401575);
#940=VECTOR('',#1538,39.3700787401575);
#941=VECTOR('',#1539,39.3700787401575);
#942=VECTOR('',#1540,39.3700787401575);
#943=VECTOR('',#1543,39.3700787401575);
#944=VECTOR('',#1544,39.3700787401575);
#945=VECTOR('',#1545,39.3700787401575);
#946=VECTOR('',#1548,39.3700787401575);
#947=VECTOR('',#1549,39.3700787401575);
#948=VECTOR('',#1550,39.3700787401575);
#949=VECTOR('',#1551,39.3700787401575);
#950=VECTOR('',#1554,39.3700787401575);
#951=VECTOR('',#1555,39.3700787401575);
#952=VECTOR('',#1556,39.3700787401575);
#953=VECTOR('',#1559,39.3700787401575);
#954=VECTOR('',#1560,39.3700787401575);
#955=VECTOR('',#1561,39.3700787401575);
#956=VECTOR('',#1564,39.3700787401575);
#957=VECTOR('',#1565,39.3700787401575);
#958=VECTOR('',#1568,39.3700787401575);
#959=VECTOR('',#1569,39.3700787401575);
#960=VECTOR('',#1572,39.3700787401575);
#961=VECTOR('',#1577,39.3700787401575);
#962=VECTOR('',#1580,39.3700787401575);
#963=VECTOR('',#1583,39.3700787401575);
#964=VECTOR('',#1588,39.3700787401575);
#965=VECTOR('',#1591,39.3700787401575);
#966=VECTOR('',#1596,39.3700787401575);
#967=VECTOR('',#1599,39.3700787401575);
#968=VECTOR('',#1606,39.3700787401575);
#969=VECTOR('',#1607,39.3700787401575);
#970=VECTOR('',#1608,39.3700787401575);
#971=VECTOR('',#1609,39.3700787401575);
#972=VECTOR('',#1612,39.3700787401575);
#973=VECTOR('',#1613,39.3700787401575);
#974=VECTOR('',#1614,39.3700787401575);
#975=VECTOR('',#1615,39.3700787401575);
#976=VECTOR('',#1618,39.3700787401575);
#977=VECTOR('',#1619,39.3700787401575);
#978=VECTOR('',#1620,39.3700787401575);
#979=VECTOR('',#1623,39.3700787401575);
#980=VECTOR('',#1624,39.3700787401575);
#981=VECTOR('',#1625,39.3700787401575);
#982=VECTOR('',#1628,39.3700787401575);
#983=VECTOR('',#1629,39.3700787401575);
#984=VECTOR('',#1632,39.3700787401575);
#985=VECTOR('',#1633,39.3700787401575);
#986=VECTOR('',#1634,39.3700787401575);
#987=VECTOR('',#1637,39.3700787401575);
#988=VECTOR('',#1638,39.3700787401575);
#989=VECTOR('',#1639,39.3700787401575);
#990=VECTOR('',#1642,39.3700787401575);
#991=VECTOR('',#1643,39.3700787401575);
#992=VECTOR('',#1646,39.3700787401575);
#993=VECTOR('',#1647,39.3700787401575);
#994=VECTOR('',#1648,39.3700787401575);
#995=VECTOR('',#1651,39.3700787401575);
#996=VECTOR('',#1652,39.3700787401575);
#997=VECTOR('',#1657,39.3700787401575);
#998=VECTOR('',#1660,39.3700787401575);
#999=VECTOR('',#1661,39.3700787401575);
#1000=VECTOR('',#1664,39.3700787401575);
#1001=VECTOR('',#1665,39.3700787401575);
#1002=VECTOR('',#1666,39.3700787401575);
#1003=VECTOR('',#1671,39.3700787401575);
#1004=VECTOR('',#1674,39.3700787401575);
#1005=VECTOR('',#1677,39.3700787401575);
#1006=VECTOR('',#1680,39.3700787401575);
#1007=VECTOR('',#1683,39.3700787401575);
#1008=VECTOR('',#1684,39.3700787401575);
#1009=VECTOR('',#1687,39.3700787401575);
#1010=VECTOR('',#1688,39.3700787401575);
#1011=VECTOR('',#1691,39.3700787401575);
#1012=VECTOR('',#1692,39.3700787401575);
#1013=VECTOR('',#1697,39.3700787401575);
#1014=VECTOR('',#1700,39.3700787401575);
#1015=VECTOR('',#1701,39.3700787401575);
#1016=VECTOR('',#1704,39.3700787401575);
#1017=VECTOR('',#1705,39.3700787401575);
#1018=VECTOR('',#1706,39.3700787401575);
#1019=VECTOR('',#1709,39.3700787401575);
#1020=VECTOR('',#1720,39.3700787401575);
#1021=VECTOR('',#1721,39.3700787401575);
#1022=VECTOR('',#1722,39.3700787401575);
#1023=VECTOR('',#1723,39.3700787401575);
#1024=VECTOR('',#1726,39.3700787401575);
#1025=VECTOR('',#1727,39.3700787401575);
#1026=VECTOR('',#1728,39.3700787401575);
#1027=VECTOR('',#1729,39.3700787401575);
#1028=VECTOR('',#1732,39.3700787401575);
#1029=VECTOR('',#1733,39.3700787401575);
#1030=VECTOR('',#1734,39.3700787401575);
#1031=VECTOR('',#1735,39.3700787401575);
#1032=VECTOR('',#1736,39.3700787401575);
#1033=VECTOR('',#1737,39.3700787401575);
#1034=VECTOR('',#1740,39.3700787401575);
#1035=VECTOR('',#1741,39.3700787401575);
#1036=VECTOR('',#1742,39.3700787401575);
#1037=VECTOR('',#1743,39.3700787401575);
#1038=VECTOR('',#1744,39.3700787401575);
#1039=VECTOR('',#1745,39.3700787401575);
#1040=VECTOR('',#1748,39.3700787401575);
#1041=VECTOR('',#1749,39.3700787401575);
#1042=VECTOR('',#1750,39.3700787401575);
#1043=VECTOR('',#1753,39.3700787401575);
#1044=VECTOR('',#1754,39.3700787401575);
#1045=VECTOR('',#1755,39.3700787401575);
#1046=VECTOR('',#1758,39.3700787401575);
#1047=VECTOR('',#1759,39.3700787401575);
#1048=VECTOR('',#1760,39.3700787401575);
#1049=VECTOR('',#1763,39.3700787401575);
#1050=VECTOR('',#1764,39.3700787401575);
#1051=VECTOR('',#1765,39.3700787401575);
#1052=VECTOR('',#1768,39.3700787401575);
#1053=VECTOR('',#1769,39.3700787401575);
#1054=VECTOR('',#1772,39.3700787401575);
#1055=VECTOR('',#1773,39.3700787401575);
#1056=VECTOR('',#1774,39.3700787401575);
#1057=VECTOR('',#1777,39.3700787401575);
#1058=VECTOR('',#1778,39.3700787401575);
#1059=VECTOR('',#1779,39.3700787401575);
#1060=VECTOR('',#1782,39.3700787401575);
#1061=VECTOR('',#1783,39.3700787401575);
#1062=VECTOR('',#1784,39.3700787401575);
#1063=VECTOR('',#1787,39.3700787401575);
#1064=VECTOR('',#1788,39.3700787401575);
#1065=VECTOR('',#1789,39.3700787401575);
#1066=VECTOR('',#1792,39.3700787401575);
#1067=VECTOR('',#1793,39.3700787401575);
#1068=VECTOR('',#1796,39.3700787401575);
#1069=VECTOR('',#1797,39.3700787401575);
#1070=VECTOR('',#1804,39.3700787401575);
#1071=VECTOR('',#1807,39.3700787401575);
#1072=EDGE_LOOP('',(#48,#49,#50,#51));
#1073=EDGE_LOOP('',(#52,#53,#54,#55));
#1074=EDGE_LOOP('',(#56,#57,#58,#59));
#1075=EDGE_LOOP('',(#60,#61,#62,#63,#64,#65,#66,#67,#68,#69,#70,#71,#72,
#73,#74,#75));
#1076=EDGE_LOOP('',(#76,#77,#78,#79));
#1077=EDGE_LOOP('',(#80,#81,#82,#83,#84,#85,#86,#87,#88,#89,#90,#91,#92,
#93,#94,#95));
#1078=EDGE_LOOP('',(#96,#97,#98,#99));
#1079=EDGE_LOOP('',(#100,#101,#102,#103));
#1080=EDGE_LOOP('',(#104,#105,#106,#107));
#1081=EDGE_LOOP('',(#108,#109,#110,#111));
#1082=EDGE_LOOP('',(#112,#113,#114,#115));
#1083=EDGE_LOOP('',(#116,#117,#118,#119));
#1084=EDGE_LOOP('',(#120,#121,#122,#123));
#1085=EDGE_LOOP('',(#124,#125,#126,#127));
#1086=EDGE_LOOP('',(#128,#129,#130,#131));
#1087=EDGE_LOOP('',(#132,#133,#134,#135));
#1088=EDGE_LOOP('',(#136,#137,#138,#139));
#1089=EDGE_LOOP('',(#140,#141,#142,#143));
#1090=EDGE_LOOP('',(#144,#145,#146,#147));
#1091=EDGE_LOOP('',(#148,#149,#150,#151));
#1092=EDGE_LOOP('',(#152,#153,#154,#155));
#1093=EDGE_LOOP('',(#156,#157,#158,#159));
#1094=EDGE_LOOP('',(#160,#161,#162,#163));
#1095=EDGE_LOOP('',(#164,#165,#166,#167));
#1096=EDGE_LOOP('',(#168,#169,#170,#171));
#1097=EDGE_LOOP('',(#172,#173,#174,#175));
#1098=EDGE_LOOP('',(#176,#177,#178,#179));
#1099=EDGE_LOOP('',(#180,#181,#182,#183));
#1100=EDGE_LOOP('',(#184,#185,#186,#187));
#1101=EDGE_LOOP('',(#188,#189,#190,#191));
#1102=EDGE_LOOP('',(#192,#193,#194,#195));
#1103=EDGE_LOOP('',(#196,#197,#198,#199));
#1104=EDGE_LOOP('',(#200,#201,#202,#203,#204,#205,#206,#207,#208,#209,#210,
#211));
#1105=EDGE_LOOP('',(#212,#213,#214,#215,#216,#217,#218,#219,#220,#221,#222,
#223));
#1106=EDGE_LOOP('',(#224,#225,#226,#227));
#1107=EDGE_LOOP('',(#228,#229,#230,#231));
#1108=EDGE_LOOP('',(#232,#233,#234,#235));
#1109=EDGE_LOOP('',(#236,#237,#238,#239));
#1110=EDGE_LOOP('',(#240,#241,#242,#243));
#1111=EDGE_LOOP('',(#244,#245,#246,#247));
#1112=EDGE_LOOP('',(#248,#249,#250,#251));
#1113=EDGE_LOOP('',(#252,#253,#254,#255));
#1114=EDGE_LOOP('',(#256,#257,#258,#259));
#1115=EDGE_LOOP('',(#260,#261,#262,#263));
#1116=EDGE_LOOP('',(#264,#265,#266,#267));
#1117=EDGE_LOOP('',(#268,#269,#270,#271));
#1118=EDGE_LOOP('',(#272,#273,#274,#275));
#1119=EDGE_LOOP('',(#276,#277,#278,#279,#280,#281,#282,#283,#284,#285,#286,
#287));
#1120=EDGE_LOOP('',(#288,#289,#290,#291));
#1121=EDGE_LOOP('',(#292,#293,#294,#295,#296,#297,#298,#299));
#1122=EDGE_LOOP('',(#300,#301,#302,#303,#304,#305,#306,#307));
#1123=EDGE_LOOP('',(#308,#309,#310,#311));
#1124=EDGE_LOOP('',(#312,#313,#314,#315));
#1125=EDGE_LOOP('',(#316,#317,#318,#319));
#1126=EDGE_LOOP('',(#320,#321,#322,#323,#324,#325,#326,#327));
#1127=EDGE_LOOP('',(#328,#329,#330,#331,#332,#333,#334,#335));
#1128=EDGE_LOOP('',(#336,#337,#338,#339));
#1129=EDGE_LOOP('',(#340,#341,#342,#343));
#1130=EDGE_LOOP('',(#344,#345,#346,#347));
#1131=EDGE_LOOP('',(#348,#349,#350,#351));
#1132=EDGE_LOOP('',(#352,#353,#354,#355));
#1133=EDGE_LOOP('',(#356,#357,#358,#359));
#1134=EDGE_LOOP('',(#360,#361,#362,#363));
#1135=EDGE_LOOP('',(#364,#365,#366,#367));
#1136=EDGE_LOOP('',(#368,#369,#370,#371));
#1137=EDGE_LOOP('',(#372,#373,#374,#375));
#1138=EDGE_LOOP('',(#376,#377,#378,#379,#380,#381,#382,#383,#384,#385,#386,
#387));
#1139=EDGE_LOOP('',(#388,#389,#390,#391));
#1140=EDGE_LOOP('',(#392,#393,#394,#395));
#1141=EDGE_LOOP('',(#396,#397,#398,#399));
#1142=EDGE_LOOP('',(#400,#401,#402,#403));
#1143=EDGE_LOOP('',(#404,#405,#406,#407));
#1144=EDGE_LOOP('',(#408,#409,#410,#411));
#1145=EDGE_LOOP('',(#412,#413,#414,#415));
#1146=FACE_BOUND('',#1072,.T.);
#1147=FACE_BOUND('',#1073,.T.);
#1148=FACE_BOUND('',#1074,.T.);
#1149=FACE_BOUND('',#1075,.T.);
#1150=FACE_BOUND('',#1076,.T.);
#1151=FACE_BOUND('',#1077,.T.);
#1152=FACE_BOUND('',#1078,.T.);
#1153=FACE_BOUND('',#1079,.T.);
#1154=FACE_BOUND('',#1080,.T.);
#1155=FACE_BOUND('',#1081,.T.);
#1156=FACE_BOUND('',#1082,.T.);
#1157=FACE_BOUND('',#1083,.T.);
#1158=FACE_BOUND('',#1084,.T.);
#1159=FACE_BOUND('',#1085,.T.);
#1160=FACE_BOUND('',#1086,.T.);
#1161=FACE_BOUND('',#1087,.T.);
#1162=FACE_BOUND('',#1088,.T.);
#1163=FACE_BOUND('',#1089,.T.);
#1164=FACE_BOUND('',#1090,.T.);
#1165=FACE_BOUND('',#1091,.T.);
#1166=FACE_BOUND('',#1092,.T.);
#1167=FACE_BOUND('',#1093,.T.);
#1168=FACE_BOUND('',#1094,.T.);
#1169=FACE_BOUND('',#1095,.T.);
#1170=FACE_BOUND('',#1096,.T.);
#1171=FACE_BOUND('',#1097,.T.);
#1172=FACE_BOUND('',#1098,.T.);
#1173=FACE_BOUND('',#1099,.T.);
#1174=FACE_BOUND('',#1100,.T.);
#1175=FACE_BOUND('',#1101,.T.);
#1176=FACE_BOUND('',#1102,.T.);
#1177=FACE_BOUND('',#1103,.T.);
#1178=FACE_BOUND('',#1104,.T.);
#1179=FACE_BOUND('',#1105,.T.);
#1180=FACE_BOUND('',#1106,.T.);
#1181=FACE_BOUND('',#1107,.T.);
#1182=FACE_BOUND('',#1108,.T.);
#1183=FACE_BOUND('',#1109,.T.);
#1184=FACE_BOUND('',#1110,.T.);
#1185=FACE_BOUND('',#1111,.T.);
#1186=FACE_BOUND('',#1112,.T.);
#1187=FACE_BOUND('',#1113,.T.);
#1188=FACE_BOUND('',#1114,.T.);
#1189=FACE_BOUND('',#1115,.T.);
#1190=FACE_BOUND('',#1116,.T.);
#1191=FACE_BOUND('',#1117,.T.);
#1192=FACE_BOUND('',#1118,.T.);
#1193=FACE_BOUND('',#1119,.T.);
#1194=FACE_BOUND('',#1120,.T.);
#1195=FACE_BOUND('',#1121,.T.);
#1196=FACE_BOUND('',#1122,.T.);
#1197=FACE_BOUND('',#1123,.T.);
#1198=FACE_BOUND('',#1124,.T.);
#1199=FACE_BOUND('',#1125,.T.);
#1200=FACE_BOUND('',#1126,.T.);
#1201=FACE_BOUND('',#1127,.T.);
#1202=FACE_BOUND('',#1128,.T.);
#1203=FACE_BOUND('',#1129,.T.);
#1204=FACE_BOUND('',#1130,.T.);
#1205=FACE_BOUND('',#1131,.T.);
#1206=FACE_BOUND('',#1132,.T.);
#1207=FACE_BOUND('',#1133,.T.);
#1208=FACE_BOUND('',#1134,.T.);
#1209=FACE_BOUND('',#1135,.T.);
#1210=FACE_BOUND('',#1136,.T.);
#1211=FACE_BOUND('',#1137,.T.);
#1212=FACE_BOUND('',#1138,.T.);
#1213=FACE_BOUND('',#1139,.T.);
#1214=FACE_BOUND('',#1140,.T.);
#1215=FACE_BOUND('',#1141,.T.);
#1216=FACE_BOUND('',#1142,.T.);
#1217=FACE_BOUND('',#1143,.T.);
#1218=FACE_BOUND('',#1144,.T.);
#1219=FACE_BOUND('',#1145,.T.);
#1220=PLANE('',#1395);
#1221=PLANE('',#1396);
#1222=PLANE('',#1397);
#1223=PLANE('',#1398);
#1224=PLANE('',#1399);
#1225=PLANE('',#1400);
#1226=PLANE('',#1401);
#1227=PLANE('',#1402);
#1228=PLANE('',#1403);
#1229=PLANE('',#1404);
#1230=PLANE('',#1405);
#1231=PLANE('',#1406);
#1232=PLANE('',#1407);
#1233=PLANE('',#1408);
#1234=PLANE('',#1409);
#1235=PLANE('',#1410);
#1236=PLANE('',#1411);
#1237=PLANE('',#1412);
#1238=PLANE('',#1413);
#1239=PLANE('',#1414);
#1240=PLANE('',#1415);
#1241=PLANE('',#1416);
#1242=PLANE('',#1417);
#1243=PLANE('',#1418);
#1244=PLANE('',#1419);
#1245=PLANE('',#1420);
#1246=PLANE('',#1422);
#1247=PLANE('',#1423);
#1248=PLANE('',#1424);
#1249=PLANE('',#1427);
#1250=PLANE('',#1430);
#1251=PLANE('',#1431);
#1252=PLANE('',#1434);
#1253=PLANE('',#1435);
#1254=PLANE('',#1438);
#1255=PLANE('',#1441);
#1256=PLANE('',#1442);
#1257=PLANE('',#1443);
#1258=PLANE('',#1446);
#1259=PLANE('',#1447);
#1260=PLANE('',#1448);
#1261=PLANE('',#1449);
#1262=PLANE('',#1450);
#1263=PLANE('',#1451);
#1264=PLANE('',#1453);
#1265=PLANE('',#1454);
#1266=PLANE('',#1455);
#1267=PLANE('',#1456);
#1268=PLANE('',#1457);
#1269=PLANE('',#1458);
#1270=PLANE('',#1459);
#1271=PLANE('',#1460);
#1272=PLANE('',#1461);
#1273=PLANE('',#1462);
#1274=PLANE('',#1463);
#1275=PLANE('',#1464);
#1276=PLANE('',#1465);
#1277=PLANE('',#1466);
#1278=PLANE('',#1467);
#1279=PLANE('',#1468);
#1280=PLANE('',#1469);
#1281=PLANE('',#1470);
#1282=PLANE('',#1471);
#1283=PLANE('',#1472);
#1284=PLANE('',#1473);
#1285=PLANE('',#1474);
#1286=ADVANCED_FACE('',(#1146),#1220,.F.);
#1287=ADVANCED_FACE('',(#1147),#1221,.F.);
#1288=ADVANCED_FACE('',(#1148),#1222,.F.);
#1289=ADVANCED_FACE('',(#1149),#1223,.F.);
#1290=ADVANCED_FACE('',(#1150),#1224,.F.);
#1291=ADVANCED_FACE('',(#1151),#1225,.F.);
#1292=ADVANCED_FACE('',(#1152),#1226,.T.);
#1293=ADVANCED_FACE('',(#1153),#1227,.T.);
#1294=ADVANCED_FACE('',(#1154),#1228,.T.);
#1295=ADVANCED_FACE('',(#1155),#1229,.T.);
#1296=ADVANCED_FACE('',(#1156),#1230,.T.);
#1297=ADVANCED_FACE('',(#1157),#1231,.T.);
#1298=ADVANCED_FACE('',(#1158),#1232,.T.);
#1299=ADVANCED_FACE('',(#1159),#1233,.T.);
#1300=ADVANCED_FACE('',(#1160),#1234,.F.);
#1301=ADVANCED_FACE('',(#1161,#1162,#1163),#1235,.T.);
#1302=ADVANCED_FACE('',(#1164),#1236,.F.);
#1303=ADVANCED_FACE('',(#1165),#1237,.F.);
#1304=ADVANCED_FACE('',(#1166),#1238,.F.);
#1305=ADVANCED_FACE('',(#1167,#1168,#1169),#1239,.F.);
#1306=ADVANCED_FACE('',(#1170),#1240,.F.);
#1307=ADVANCED_FACE('',(#1171),#1241,.F.);
#1308=ADVANCED_FACE('',(#1172),#1242,.F.);
#1309=ADVANCED_FACE('',(#1173),#1243,.F.);
#1310=ADVANCED_FACE('',(#1174),#1244,.F.);
#1311=ADVANCED_FACE('',(#1175),#1245,.F.);
#1312=ADVANCED_FACE('',(#1176),#1246,.F.);
#1313=ADVANCED_FACE('',(#1177),#1247,.F.);
#1314=ADVANCED_FACE('',(#1178),#1248,.T.);
#1315=ADVANCED_FACE('',(#1179),#1249,.F.);
#1316=ADVANCED_FACE('',(#1180),#1250,.F.);
#1317=ADVANCED_FACE('',(#1181),#1251,.F.);
#1318=ADVANCED_FACE('',(#1182),#18,.T.);
#1319=ADVANCED_FACE('',(#1183),#1252,.F.);
#1320=ADVANCED_FACE('',(#1184),#1253,.F.);
#1321=ADVANCED_FACE('',(#1185),#19,.F.);
#1322=ADVANCED_FACE('',(#1186),#1254,.F.);
#1323=ADVANCED_FACE('',(#1187),#20,.T.);
#1324=ADVANCED_FACE('',(#1188),#1255,.F.);
#1325=ADVANCED_FACE('',(#1189),#1256,.F.);
#1326=ADVANCED_FACE('',(#1190),#1257,.F.);
#1327=ADVANCED_FACE('',(#1191),#21,.F.);
#1328=ADVANCED_FACE('',(#1192),#1258,.F.);
#1329=ADVANCED_FACE('',(#1193),#1259,.F.);
#1330=ADVANCED_FACE('',(#1194),#1260,.F.);
#1331=ADVANCED_FACE('',(#1195),#1261,.F.);
#1332=ADVANCED_FACE('',(#1196),#1262,.F.);
#1333=ADVANCED_FACE('',(#1197),#1263,.T.);
#1334=ADVANCED_FACE('',(#1198),#1264,.F.);
#1335=ADVANCED_FACE('',(#1199),#1265,.F.);
#1336=ADVANCED_FACE('',(#1200),#1266,.T.);
#1337=ADVANCED_FACE('',(#1201),#1267,.F.);
#1338=ADVANCED_FACE('',(#1202),#1268,.F.);
#1339=ADVANCED_FACE('',(#1203),#1269,.F.);
#1340=ADVANCED_FACE('',(#1204),#1270,.F.);
#1341=ADVANCED_FACE('',(#1205),#1271,.F.);
#1342=ADVANCED_FACE('',(#1206),#1272,.F.);
#1343=ADVANCED_FACE('',(#1207),#1273,.F.);
#1344=ADVANCED_FACE('',(#1208),#1274,.F.);
#1345=ADVANCED_FACE('',(#1209),#1275,.F.);
#1346=ADVANCED_FACE('',(#1210),#1276,.F.);
#1347=ADVANCED_FACE('',(#1211),#1277,.F.);
#1348=ADVANCED_FACE('',(#1212),#1278,.F.);
#1349=ADVANCED_FACE('',(#1213),#1279,.F.);
#1350=ADVANCED_FACE('',(#1214),#1280,.F.);
#1351=ADVANCED_FACE('',(#1215),#1281,.F.);
#1352=ADVANCED_FACE('',(#1216),#1282,.F.);
#1353=ADVANCED_FACE('',(#1217),#1283,.F.);
#1354=ADVANCED_FACE('',(#1218),#1284,.F.);
#1355=ADVANCED_FACE('',(#1219),#1285,.T.);
#1356=CLOSED_SHELL('',(#1286,#1287,#1288,#1289,#1290,#1291,#1292,#1293,
#1294,#1295,#1296,#1297,#1298,#1299,#1300,#1301,#1302,#1303,#1304,#1305,
#1306,#1307,#1308,#1309,#1310,#1311));
#1357=CLOSED_SHELL('',(#1312,#1313,#1314,#1315,#1316,#1317,#1318,#1319,
#1320,#1321,#1322,#1323,#1324,#1325,#1326,#1327,#1328,#1329,#1330,#1331,
#1332,#1333));
#1358=CLOSED_SHELL('',(#1334,#1335,#1336,#1337,#1338,#1339,#1340,#1341,
#1342,#1343,#1344,#1345,#1346,#1347,#1348,#1349,#1350,#1351,#1352,#1353,
#1354,#1355));
#1359=STYLED_ITEM('',(#1362),#1383);
#1360=STYLED_ITEM('',(#1363),#1384);
#1361=STYLED_ITEM('',(#1364),#1385);
#1362=PRESENTATION_STYLE_ASSIGNMENT((#1365));
#1363=PRESENTATION_STYLE_ASSIGNMENT((#1366));
#1364=PRESENTATION_STYLE_ASSIGNMENT((#1367));
#1365=SURFACE_STYLE_USAGE(.BOTH.,#1368);
#1366=SURFACE_STYLE_USAGE(.BOTH.,#1369);
#1367=SURFACE_STYLE_USAGE(.BOTH.,#1370);
#1368=SURFACE_SIDE_STYLE('',(#1371));
#1369=SURFACE_SIDE_STYLE('',(#1372));
#1370=SURFACE_SIDE_STYLE('',(#1373));
#1371=SURFACE_STYLE_FILL_AREA(#1374);
#1372=SURFACE_STYLE_FILL_AREA(#1375);
#1373=SURFACE_STYLE_FILL_AREA(#1376);
#1374=FILL_AREA_STYLE('',(#1377));
#1375=FILL_AREA_STYLE('',(#1378));
#1376=FILL_AREA_STYLE('',(#1379));
#1377=FILL_AREA_STYLE_COLOUR('',#1380);
#1378=FILL_AREA_STYLE_COLOUR('',#1381);
#1379=FILL_AREA_STYLE_COLOUR('',#1382);
#1380=COLOUR_RGB('',0.470588237047195,0.470588237047195,0.470588237047195);
#1381=COLOUR_RGB('',0.95686274766922,0.95686274766922,0.95686274766922);
#1382=COLOUR_RGB('',1.,0.874509811401367,0.149019613862038);
#1383=MANIFOLD_SOLID_BREP('FTR-102-02-S-S_body',#1356);
#1384=MANIFOLD_SOLID_BREP('FTR-102-02-S-S_pins',#1357);
#1385=MANIFOLD_SOLID_BREP('FTR-102-02-S-S2PNS',#1358);
#1386=SHAPE_DEFINITION_REPRESENTATION(#2209,#1390);
#1387=SHAPE_DEFINITION_REPRESENTATION(#2210,#1391);
#1388=SHAPE_DEFINITION_REPRESENTATION(#2212,#1392);
#1389=SHAPE_DEFINITION_REPRESENTATION(#2214,#1393);
#1390=SHAPE_REPRESENTATION('FTR-102-02-S-S',(#1394,#1421,#1452,#1475),#2195);
#1391=SHAPE_REPRESENTATION('FTR-102-02-S-S_body',(#1394),#2196);
#1392=SHAPE_REPRESENTATION('FTR-102-02-S-S_pins',(#1394),#2197);
#1393=SHAPE_REPRESENTATION('FTR-102-02-S-S2PNS',(#1394),#2198);
#1394=AXIS2_PLACEMENT_3D('',#1816,#1476,#1477);
#1395=AXIS2_PLACEMENT_3D('',#1817,#1478,#1479);
#1396=AXIS2_PLACEMENT_3D('',#1826,#1484,#1485);
#1397=AXIS2_PLACEMENT_3D('',#1835,#1490,#1491);
#1398=AXIS2_PLACEMENT_3D('',#1844,#1496,#1497);
#1399=AXIS2_PLACEMENT_3D('',#1868,#1511,#1512);
#1400=AXIS2_PLACEMENT_3D('',#1874,#1516,#1517);
#1401=AXIS2_PLACEMENT_3D('',#1895,#1530,#1531);
#1402=AXIS2_PLACEMENT_3D('',#1904,#1536,#1537);
#1403=AXIS2_PLACEMENT_3D('',#1910,#1541,#1542);
#1404=AXIS2_PLACEMENT_3D('',#1916,#1546,#1547);
#1405=AXIS2_PLACEMENT_3D('',#1925,#1552,#1553);
#1406=AXIS2_PLACEMENT_3D('',#1931,#1557,#1558);
#1407=AXIS2_PLACEMENT_3D('',#1937,#1562,#1563);
#1408=AXIS2_PLACEMENT_3D('',#1940,#1566,#1567);
#1409=AXIS2_PLACEMENT_3D('',#1943,#1570,#1571);
#1410=AXIS2_PLACEMENT_3D('',#1945,#1573,#1574);
#1411=AXIS2_PLACEMENT_3D('',#1946,#1575,#1576);
#1412=AXIS2_PLACEMENT_3D('',#1948,#1578,#1579);
#1413=AXIS2_PLACEMENT_3D('',#1950,#1581,#1582);
#1414=AXIS2_PLACEMENT_3D('',#1952,#1584,#1585);
#1415=AXIS2_PLACEMENT_3D('',#1953,#1586,#1587);
#1416=AXIS2_PLACEMENT_3D('',#1955,#1589,#1590);
#1417=AXIS2_PLACEMENT_3D('',#1957,#1592,#1593);
#1418=AXIS2_PLACEMENT_3D('',#1958,#1594,#1595);
#1419=AXIS2_PLACEMENT_3D('',#1960,#1597,#1598);
#1420=AXIS2_PLACEMENT_3D('',#1962,#1600,#1601);
#1421=AXIS2_PLACEMENT_3D('',#1963,#1602,#1603);
#1422=AXIS2_PLACEMENT_3D('',#1964,#1604,#1605);
#1423=AXIS2_PLACEMENT_3D('',#1973,#1610,#1611);
#1424=AXIS2_PLACEMENT_3D('',#1982,#1616,#1617);
#1425=AXIS2_PLACEMENT_3D('',#1988,#1621,#1622);
#1426=AXIS2_PLACEMENT_3D('',#1996,#1626,#1627);
#1427=AXIS2_PLACEMENT_3D('',#2001,#1630,#1631);
#1428=AXIS2_PLACEMENT_3D('',#2007,#1635,#1636);
#1429=AXIS2_PLACEMENT_3D('',#2015,#1640,#1641);
#1430=AXIS2_PLACEMENT_3D('',#2020,#1644,#1645);
#1431=AXIS2_PLACEMENT_3D('',#2026,#1649,#1650);
#1432=AXIS2_PLACEMENT_3D('',#2030,#1653,#1654);
#1433=AXIS2_PLACEMENT_3D('',#2031,#1655,#1656);
#1434=AXIS2_PLACEMENT_3D('',#2034,#1658,#1659);
#1435=AXIS2_PLACEMENT_3D('',#2038,#1662,#1663);
#1436=AXIS2_PLACEMENT_3D('',#2044,#1667,#1668);
#1437=AXIS2_PLACEMENT_3D('',#2045,#1669,#1670);
#1438=AXIS2_PLACEMENT_3D('',#2048,#1672,#1673);
#1439=AXIS2_PLACEMENT_3D('',#2050,#1675,#1676);
#1440=AXIS2_PLACEMENT_3D('',#2053,#1678,#1679);
#1441=AXIS2_PLACEMENT_3D('',#2056,#1681,#1682);
#1442=AXIS2_PLACEMENT_3D('',#2060,#1685,#1686);
#1443=AXIS2_PLACEMENT_3D('',#2064,#1689,#1690);
#1444=AXIS2_PLACEMENT_3D('',#2068,#1693,#1694);
#1445=AXIS2_PLACEMENT_3D('',#2069,#1695,#1696);
#1446=AXIS2_PLACEMENT_3D('',#2072,#1698,#1699);
#1447=AXIS2_PLACEMENT_3D('',#2076,#1702,#1703);
#1448=AXIS2_PLACEMENT_3D('',#2081,#1707,#1708);
#1449=AXIS2_PLACEMENT_3D('',#2083,#1710,#1711);
#1450=AXIS2_PLACEMENT_3D('',#2084,#1712,#1713);
#1451=AXIS2_PLACEMENT_3D('',#2085,#1714,#1715);
#1452=AXIS2_PLACEMENT_3D('',#2086,#1716,#1717);
#1453=AXIS2_PLACEMENT_3D('',#2087,#1718,#1719);
#1454=AXIS2_PLACEMENT_3D('',#2096,#1724,#1725);
#1455=AXIS2_PLACEMENT_3D('',#2105,#1730,#1731);
#1456=AXIS2_PLACEMENT_3D('',#2116,#1738,#1739);
#1457=AXIS2_PLACEMENT_3D('',#2127,#1746,#1747);
#1458=AXIS2_PLACEMENT_3D('',#2133,#1751,#1752);
#1459=AXIS2_PLACEMENT_3D('',#2139,#1756,#1757);
#1460=AXIS2_PLACEMENT_3D('',#2145,#1761,#1762);
#1461=AXIS2_PLACEMENT_3D('',#2150,#1766,#1767);
#1462=AXIS2_PLACEMENT_3D('',#2154,#1770,#1771);
#1463=AXIS2_PLACEMENT_3D('',#2160,#1775,#1776);
#1464=AXIS2_PLACEMENT_3D('',#2166,#1780,#1781);
#1465=AXIS2_PLACEMENT_3D('',#2172,#1785,#1786);
#1466=AXIS2_PLACEMENT_3D('',#2177,#1790,#1791);
#1467=AXIS2_PLACEMENT_3D('',#2181,#1794,#1795);
#1468=AXIS2_PLACEMENT_3D('',#2184,#1798,#1799);
#1469=AXIS2_PLACEMENT_3D('',#2185,#1800,#1801);
#1470=AXIS2_PLACEMENT_3D('',#2186,#1802,#1803);
#1471=AXIS2_PLACEMENT_3D('',#2188,#1805,#1806);
#1472=AXIS2_PLACEMENT_3D('',#2190,#1808,#1809);
#1473=AXIS2_PLACEMENT_3D('',#2191,#1810,#1811);
#1474=AXIS2_PLACEMENT_3D('',#2192,#1812,#1813);
#1475=AXIS2_PLACEMENT_3D('',#2193,#1814,#1815);
#1476=DIRECTION('',(0.,0.,1.));
#1477=DIRECTION('',(1.,0.,0.));
#1478=DIRECTION('',(0.,0.,-1.));
#1479=DIRECTION('',(-1.,0.,0.));
#1480=DIRECTION('',(0.,-1.,0.));
#1481=DIRECTION('',(-1.,0.,0.));
#1482=DIRECTION('',(0.,-1.,0.));
#1483=DIRECTION('',(1.,0.,0.));
#1484=DIRECTION('',(0.,0.,1.));
#1485=DIRECTION('',(1.,0.,0.));
#1486=DIRECTION('',(0.,-1.,0.));
#1487=DIRECTION('',(-1.,0.,0.));
#1488=DIRECTION('',(0.,-1.,0.));
#1489=DIRECTION('',(-1.,0.,0.));
#1490=DIRECTION('',(0.,1.,0.));
#1491=DIRECTION('',(0.,0.,1.));
#1492=DIRECTION('',(0.,0.,-1.));
#1493=DIRECTION('',(-1.,0.,0.));
#1494=DIRECTION('',(0.,0.,1.));
#1495=DIRECTION('',(-1.,0.,0.));
#1496=DIRECTION('',(1.,0.,0.));
#1497=DIRECTION('',(0.,0.,-1.));
#1498=DIRECTION('',(0.,0.,-1.));
#1499=DIRECTION('',(0.,1.,0.));
#1500=DIRECTION('',(0.,0.,1.));
#1501=DIRECTION('',(0.,-1.,0.));
#1502=DIRECTION('',(0.,-1.,0.));
#1503=DIRECTION('',(0.,0.,-1.));
#1504=DIRECTION('',(0.,1.,0.));
#1505=DIRECTION('',(0.,0.,1.));
#1506=DIRECTION('',(0.,3.28347114623109E-16,1.));
#1507=DIRECTION('',(0.,-1.,0.));
#1508=DIRECTION('',(0.,0.,-1.));
#1509=DIRECTION('',(0.,-1.,0.));
#1510=DIRECTION('',(0.,0.,1.));
#1511=DIRECTION('',(0.,0.,-1.));
#1512=DIRECTION('',(-1.,0.,0.));
#1513=DIRECTION('',(-1.,0.,0.));
#1514=DIRECTION('',(0.,-1.,0.));
#1515=DIRECTION('',(1.,0.,0.));
#1516=DIRECTION('',(-1.,0.,0.));
#1517=DIRECTION('',(0.,0.,1.));
#1518=DIRECTION('',(0.,1.,0.));
#1519=DIRECTION('',(0.,0.,-1.));
#1520=DIRECTION('',(0.,0.,-1.));
#1521=DIRECTION('',(0.,0.,-1.));
#1522=DIRECTION('',(0.,-1.,0.));
#1523=DIRECTION('',(0.,3.28347114623109E-16,1.));
#1524=DIRECTION('',(0.,0.,-1.));
#1525=DIRECTION('',(0.,1.,0.));
#1526=DIRECTION('',(0.,0.,-1.));
#1527=DIRECTION('',(0.,-1.,0.));
#1528=DIRECTION('',(0.,-1.,0.));
#1529=DIRECTION('',(0.,0.,1.));
#1530=DIRECTION('',(1.,0.,0.));
#1531=DIRECTION('',(0.,0.,-1.));
#1532=DIRECTION('',(0.,0.,1.));
#1533=DIRECTION('',(0.,-1.,0.));
#1534=DIRECTION('',(0.,0.,1.));
#1535=DIRECTION('',(0.,-1.,0.));
#1536=DIRECTION('',(0.,0.,1.));
#1537=DIRECTION('',(1.,0.,0.));
#1538=DIRECTION('',(-1.,0.,0.));
#1539=DIRECTION('',(0.,-1.,0.));
#1540=DIRECTION('',(-1.,0.,0.));
#1541=DIRECTION('',(-1.,0.,0.));
#1542=DIRECTION('',(0.,0.,1.));
#1543=DIRECTION('',(0.,0.,-1.));
#1544=DIRECTION('',(0.,-1.,0.));
#1545=DIRECTION('',(0.,0.,-1.));
#1546=DIRECTION('',(1.,0.,0.));
#1547=DIRECTION('',(0.,0.,-1.));
#1548=DIRECTION('',(0.,0.,1.));
#1549=DIRECTION('',(0.,-1.,0.));
#1550=DIRECTION('',(0.,0.,1.));
#1551=DIRECTION('',(0.,-1.,0.));
#1552=DIRECTION('',(0.,0.,1.));
#1553=DIRECTION('',(1.,0.,0.));
#1554=DIRECTION('',(-1.,0.,0.));
#1555=DIRECTION('',(0.,-1.,0.));
#1556=DIRECTION('',(-1.,0.,0.));
#1557=DIRECTION('',(-1.,0.,0.));
#1558=DIRECTION('',(0.,0.,1.));
#1559=DIRECTION('',(0.,0.,-1.));
#1560=DIRECTION('',(0.,-1.,0.));
#1561=DIRECTION('',(0.,0.,-1.));
#1562=DIRECTION('',(0.,0.,-1.));
#1563=DIRECTION('',(-1.,0.,0.));
#1564=DIRECTION('',(1.,0.,0.));
#1565=DIRECTION('',(1.,0.,0.));
#1566=DIRECTION('',(0.,0.,-1.));
#1567=DIRECTION('',(-1.,0.,0.));
#1568=DIRECTION('',(1.,0.,0.));
#1569=DIRECTION('',(1.,0.,0.));
#1570=DIRECTION('',(0.,0.,1.));
#1571=DIRECTION('',(1.,0.,0.));
#1572=DIRECTION('',(-1.,0.,0.));
#1573=DIRECTION('',(0.,1.,0.));
#1574=DIRECTION('',(0.,0.,1.));
#1575=DIRECTION('',(0.,1.,0.));
#1576=DIRECTION('',(0.,0.,1.));
#1577=DIRECTION('',(-1.,0.,0.));
#1578=DIRECTION('',(0.,0.,-1.));
#1579=DIRECTION('',(-1.,0.,0.));
#1580=DIRECTION('',(-1.,0.,0.));
#1581=DIRECTION('',(0.,0.,1.));
#1582=DIRECTION('',(1.,0.,0.));
#1583=DIRECTION('',(-1.,0.,0.));
#1584=DIRECTION('',(0.,1.,0.));
#1585=DIRECTION('',(0.,0.,1.));
#1586=DIRECTION('',(0.,1.,0.));
#1587=DIRECTION('',(0.,0.,1.));
#1588=DIRECTION('',(-1.,0.,0.));
#1589=DIRECTION('',(0.,-1.,0.));
#1590=DIRECTION('',(0.,0.,-1.));
#1591=DIRECTION('',(-1.,0.,0.));
#1592=DIRECTION('',(0.,0.,1.));
#1593=DIRECTION('',(1.,0.,0.));
#1594=DIRECTION('',(0.,-1.,3.28347114623109E-16));
#1595=DIRECTION('',(0.,-3.28347114623109E-16,-1.));
#1596=DIRECTION('',(-1.,0.,0.));
#1597=DIRECTION('',(0.,0.,-1.));
#1598=DIRECTION('',(-1.,0.,0.));
#1599=DIRECTION('',(-1.,0.,0.));
#1600=DIRECTION('',(0.,1.,0.));
#1601=DIRECTION('',(0.,0.,1.));
#1602=DIRECTION('',(0.,0.,1.));
#1603=DIRECTION('',(1.,0.,0.));
#1604=DIRECTION('',(0.,0.,1.));
#1605=DIRECTION('',(1.,0.,0.));
#1606=DIRECTION('',(-1.,0.,0.));
#1607=DIRECTION('',(0.,1.,0.));
#1608=DIRECTION('',(-1.,0.,0.));
#1609=DIRECTION('',(0.,1.,0.));
#1610=DIRECTION('',(0.,0.,-1.));
#1611=DIRECTION('',(-1.,0.,0.));
#1612=DIRECTION('',(1.,0.,0.));
#1613=DIRECTION('',(0.,-1.,0.));
#1614=DIRECTION('',(-1.,0.,0.));
#1615=DIRECTION('',(0.,-1.,0.));
#1616=DIRECTION('',(1.,0.,0.));
#1617=DIRECTION('',(0.,0.,-1.));
#1618=DIRECTION('',(0.,0.,1.));
#1619=DIRECTION('',(0.,0.,-1.));
#1620=DIRECTION('',(0.,-1.,1.92903929841074E-15));
#1621=DIRECTION('',(1.,0.,0.));
#1622=DIRECTION('',(0.,0.,-1.));
#1623=DIRECTION('',(0.,0.,1.));
#1624=DIRECTION('',(0.,-1.,0.));
#1625=DIRECTION('',(0.,0.,-1.));
#1626=DIRECTION('',(1.,0.,0.));
#1627=DIRECTION('',(0.,0.,-1.));
#1628=DIRECTION('',(0.,1.,0.));
#1629=DIRECTION('',(0.,1.44952107985354E-16,-1.));
#1630=DIRECTION('',(1.,0.,0.));
#1631=DIRECTION('',(0.,0.,-1.));
#1632=DIRECTION('',(0.,0.,1.));
#1633=DIRECTION('',(0.,1.44952107985354E-16,-1.));
#1634=DIRECTION('',(0.,1.,0.));
#1635=DIRECTION('',(1.,0.,0.));
#1636=DIRECTION('',(0.,0.,-1.));
#1637=DIRECTION('',(0.,0.,1.));
#1638=DIRECTION('',(0.,1.,0.));
#1639=DIRECTION('',(0.,0.,-1.));
#1640=DIRECTION('',(1.,0.,0.));
#1641=DIRECTION('',(0.,0.,-1.));
#1642=DIRECTION('',(0.,-1.,1.92903929841074E-15));
#1643=DIRECTION('',(0.,0.,-1.));
#1644=DIRECTION('',(0.,0.,-1.));
#1645=DIRECTION('',(-1.,0.,0.));
#1646=DIRECTION('',(-1.,0.,0.));
#1647=DIRECTION('',(0.,-1.,0.));
#1648=DIRECTION('',(-1.,0.,0.));
#1649=DIRECTION('',(0.,1.,0.));
#1650=DIRECTION('',(0.,0.,1.));
#1651=DIRECTION('',(0.,0.,-1.));
#1652=DIRECTION('',(-1.,0.,0.));
#1653=DIRECTION('',(-1.,0.,0.));
#1654=DIRECTION('',(0.,0.,1.));
#1655=DIRECTION('',(1.,0.,0.));
#1656=DIRECTION('',(0.,0.,-1.));
#1657=DIRECTION('',(-1.,0.,0.));
#1658=DIRECTION('',(0.,0.,1.));
#1659=DIRECTION('',(1.,0.,0.));
#1660=DIRECTION('',(0.,1.,0.));
#1661=DIRECTION('',(-1.,0.,0.));
#1662=DIRECTION('',(0.,-1.92903929841074E-15,-1.));
#1663=DIRECTION('',(0.,1.,-1.92903929841074E-15));
#1664=DIRECTION('',(-1.,0.,0.));
#1665=DIRECTION('',(0.,-1.,1.92903929841074E-15));
#1666=DIRECTION('',(-1.,0.,0.));
#1667=DIRECTION('',(-1.,0.,0.));
#1668=DIRECTION('',(0.,0.,1.));
#1669=DIRECTION('',(1.,0.,0.));
#1670=DIRECTION('',(0.,0.,-1.));
#1671=DIRECTION('',(-1.,0.,0.));
#1672=DIRECTION('',(0.,-1.,0.));
#1673=DIRECTION('',(0.,0.,-1.));
#1674=DIRECTION('',(0.,0.,1.));
#1675=DIRECTION('',(-1.,0.,0.));
#1676=DIRECTION('',(0.,0.,1.));
#1677=DIRECTION('',(-1.,0.,0.));
#1678=DIRECTION('',(-1.,0.,0.));
#1679=DIRECTION('',(0.,0.,1.));
#1680=DIRECTION('',(-1.,0.,0.));
#1681=DIRECTION('',(0.,1.,0.));
#1682=DIRECTION('',(0.,0.,1.));
#1683=DIRECTION('',(-1.,0.,0.));
#1684=DIRECTION('',(0.,0.,-1.));
#1685=DIRECTION('',(0.,0.,1.));
#1686=DIRECTION('',(1.,0.,0.));
#1687=DIRECTION('',(-1.,0.,0.));
#1688=DIRECTION('',(0.,-1.,0.));
#1689=DIRECTION('',(0.,-1.,0.));
#1690=DIRECTION('',(0.,0.,-1.));
#1691=DIRECTION('',(-1.,0.,0.));
#1692=DIRECTION('',(0.,0.,-1.));
#1693=DIRECTION('',(-1.,0.,0.));
#1694=DIRECTION('',(0.,0.,1.));
#1695=DIRECTION('',(-1.,0.,0.));
#1696=DIRECTION('',(0.,0.,1.));
#1697=DIRECTION('',(-1.,0.,0.));
#1698=DIRECTION('',(0.,0.,1.));
#1699=DIRECTION('',(1.,0.,0.));
#1700=DIRECTION('',(-1.,0.,0.));
#1701=DIRECTION('',(0.,-1.,0.));
#1702=DIRECTION('',(0.,1.,0.));
#1703=DIRECTION('',(0.,0.,1.));
#1704=DIRECTION('',(-1.,0.,0.));
#1705=DIRECTION('',(0.,0.,-1.));
#1706=DIRECTION('',(0.,0.,-1.));
#1707=DIRECTION('',(0.,-1.92903929841074E-15,-1.));
#1708=DIRECTION('',(0.,1.,-1.92903929841074E-15));
#1709=DIRECTION('',(0.,1.,-1.92903929841074E-15));
#1710=DIRECTION('',(-1.,0.,0.));
#1711=DIRECTION('',(0.,0.,1.));
#1712=DIRECTION('',(1.,0.,0.));
#1713=DIRECTION('',(0.,0.,-1.));
#1714=DIRECTION('',(0.,1.,0.));
#1715=DIRECTION('',(0.,0.,1.));
#1716=DIRECTION('',(0.,0.,-1.));
#1717=DIRECTION('',(-1.,0.,0.));
#1718=DIRECTION('',(0.,0.,1.));
#1719=DIRECTION('',(1.,0.,0.));
#1720=DIRECTION('',(1.,0.,0.));
#1721=DIRECTION('',(0.,1.,0.));
#1722=DIRECTION('',(-1.,0.,0.));
#1723=DIRECTION('',(0.,1.,0.));
#1724=DIRECTION('',(0.,0.,-1.));
#1725=DIRECTION('',(-1.,0.,0.));
#1726=DIRECTION('',(-1.,0.,0.));
#1727=DIRECTION('',(0.,-1.,0.));
#1728=DIRECTION('',(-1.,0.,0.));
#1729=DIRECTION('',(0.,-1.,0.));
#1730=DIRECTION('',(1.,0.,0.));
#1731=DIRECTION('',(0.,0.,-1.));
#1732=DIRECTION('',(0.,0.,-1.));
#1733=DIRECTION('',(0.,0.,1.));
#1734=DIRECTION('',(0.,1.,-3.74291207154327E-16));
#1735=DIRECTION('',(0.,0.,-1.));
#1736=DIRECTION('',(0.,-1.,0.));
#1737=DIRECTION('',(0.,-5.79808431941347E-16,1.));
#1738=DIRECTION('',(1.,0.,0.));
#1739=DIRECTION('',(0.,0.,-1.));
#1740=DIRECTION('',(0.,0.,-1.));
#1741=DIRECTION('',(0.,-5.79808431941347E-16,1.));
#1742=DIRECTION('',(0.,-1.,0.));
#1743=DIRECTION('',(0.,0.,-1.));
#1744=DIRECTION('',(0.,1.,-3.74291207154327E-16));
#1745=DIRECTION('',(0.,0.,1.));
#1746=DIRECTION('',(0.,3.74291207154327E-16,1.));
#1747=DIRECTION('',(0.,-1.,3.74291207154327E-16));
#1748=DIRECTION('',(-1.,0.,0.));
#1749=DIRECTION('',(0.,-1.,3.74291207154327E-16));
#1750=DIRECTION('',(-1.,0.,0.));
#1751=DIRECTION('',(0.,-0.707106781186548,0.707106781186547));
#1752=DIRECTION('',(0.,-0.707106781186547,-0.707106781186548));
#1753=DIRECTION('',(0.577350269189626,0.577350269189626,0.577350269189626));
#1754=DIRECTION('',(-1.,0.,0.));
#1755=DIRECTION('',(0.577350269189626,-0.577350269189626,-0.577350269189626));
#1756=DIRECTION('',(0.,-1.,0.));
#1757=DIRECTION('',(0.,0.,-1.));
#1758=DIRECTION('',(0.,0.,-1.));
#1759=DIRECTION('',(-1.,0.,0.));
#1760=DIRECTION('',(0.,0.,-1.));
#1761=DIRECTION('',(0.,-0.707106781186547,-0.707106781186548));
#1762=DIRECTION('',(0.,0.707106781186548,-0.707106781186547));
#1763=DIRECTION('',(-0.577350269189626,-0.577350269189626,0.577350269189626));
#1764=DIRECTION('',(-1.,0.,0.));
#1765=DIRECTION('',(-0.577350269189626,0.577350269189626,-0.577350269189626));
#1766=DIRECTION('',(0.,0.,-1.));
#1767=DIRECTION('',(-1.,0.,0.));
#1768=DIRECTION('',(-1.,0.,0.));
#1769=DIRECTION('',(0.,1.,0.));
#1770=DIRECTION('',(0.,3.74291207154327E-16,1.));
#1771=DIRECTION('',(0.,-1.,3.74291207154327E-16));
#1772=DIRECTION('',(-1.,0.,0.));
#1773=DIRECTION('',(0.,1.,-3.74291207154327E-16));
#1774=DIRECTION('',(-1.,0.,0.));
#1775=DIRECTION('',(0.,-0.707106781186548,0.707106781186547));
#1776=DIRECTION('',(0.,-0.707106781186547,-0.707106781186548));
#1777=DIRECTION('',(0.577350269189626,0.577350269189626,0.577350269189626));
#1778=DIRECTION('',(-1.,0.,0.));
#1779=DIRECTION('',(0.577350269189623,-0.577350269189627,-0.577350269189627));
#1780=DIRECTION('',(0.,-1.,0.));
#1781=DIRECTION('',(0.,0.,-1.));
#1782=DIRECTION('',(0.,0.,-1.));
#1783=DIRECTION('',(-1.,0.,0.));
#1784=DIRECTION('',(0.,0.,-1.));
#1785=DIRECTION('',(0.,-0.707106781186547,-0.707106781186548));
#1786=DIRECTION('',(0.,0.707106781186548,-0.707106781186547));
#1787=DIRECTION('',(-0.577350269189626,-0.577350269189626,0.577350269189626));
#1788=DIRECTION('',(-1.,0.,0.));
#1789=DIRECTION('',(-0.577350269189623,0.577350269189627,-0.577350269189627));
#1790=DIRECTION('',(0.,0.,-1.));
#1791=DIRECTION('',(-1.,0.,0.));
#1792=DIRECTION('',(0.,-1.,0.));
#1793=DIRECTION('',(-1.,0.,0.));
#1794=DIRECTION('',(0.,-1.,-5.79808431941347E-16));
#1795=DIRECTION('',(0.,5.79808431941347E-16,-1.));
#1796=DIRECTION('',(0.,0.,-1.));
#1797=DIRECTION('',(0.,0.,-1.));
#1798=DIRECTION('',(0.707106781186547,-0.707106781186548,0.));
#1799=DIRECTION('',(0.707106781186548,0.707106781186547,0.));
#1800=DIRECTION('',(-0.70710678118655,-0.707106781186545,0.));
#1801=DIRECTION('',(0.707106781186545,-0.70710678118655,0.));
#1802=DIRECTION('',(-0.707106781186547,-0.707106781186548,0.));
#1803=DIRECTION('',(0.707106781186548,-0.707106781186547,0.));
#1804=DIRECTION('',(0.,0.,-1.));
#1805=DIRECTION('',(0.707106781186547,-0.707106781186548,0.));
#1806=DIRECTION('',(0.707106781186548,0.707106781186547,0.));
#1807=DIRECTION('',(0.,0.,-1.));
#1808=DIRECTION('',(-1.,0.,0.));
#1809=DIRECTION('',(0.,0.,1.));
#1810=DIRECTION('',(1.,0.,0.));
#1811=DIRECTION('',(0.,0.,-1.));
#1812=DIRECTION('',(0.,-1.,0.));
#1813=DIRECTION('',(0.,0.,-1.));
#1814=DIRECTION('',(0.,0.,-1.));
#1815=DIRECTION('',(-1.,0.,0.));
#1816=CARTESIAN_POINT('',(0.,0.,0.));
#1817=CARTESIAN_POINT('',(-0.05,0.05,0.048));
#1818=CARTESIAN_POINT('',(0.05,0.05,0.048));
#1819=CARTESIAN_POINT('',(0.05,-0.02,0.048));
#1820=CARTESIAN_POINT('',(0.05,-0.05,0.048));
#1821=CARTESIAN_POINT('',(0.05,-0.02,0.048));
#1822=CARTESIAN_POINT('',(-0.05,-0.02,0.048));
#1823=CARTESIAN_POINT('',(-0.05,0.05,0.048));
#1824=CARTESIAN_POINT('',(-0.05,-0.05,0.048));
#1825=CARTESIAN_POINT('',(-0.05,-0.05,0.048));
#1826=CARTESIAN_POINT('',(0.05,0.05,-0.048));
#1827=CARTESIAN_POINT('',(0.05,0.05,-0.048));
#1828=CARTESIAN_POINT('',(0.05,0.05,-0.048));
#1829=CARTESIAN_POINT('',(0.05,0.03,-0.048));
#1830=CARTESIAN_POINT('',(0.05,0.03,-0.048));
#1831=CARTESIAN_POINT('',(-0.05,0.03,-0.048));
#1832=CARTESIAN_POINT('',(-0.05,0.05,-0.048));
#1833=CARTESIAN_POINT('',(-0.05,0.05,-0.048));
#1834=CARTESIAN_POINT('',(0.05,0.05,-0.048));
#1835=CARTESIAN_POINT('',(0.,-0.05,0.));
#1836=CARTESIAN_POINT('',(0.05,-0.05,0.048));
#1837=CARTESIAN_POINT('',(0.05,-0.05,-0.028));
#1838=CARTESIAN_POINT('',(0.05,-0.05,-0.048));
#1839=CARTESIAN_POINT('',(0.05,-0.05,-0.028));
#1840=CARTESIAN_POINT('',(-0.05,-0.05,-0.028));
#1841=CARTESIAN_POINT('',(-0.05,-0.05,-0.048));
#1842=CARTESIAN_POINT('',(-0.05,-0.05,-0.048));
#1843=CARTESIAN_POINT('',(0.05,-0.05,-0.048));
#1844=CARTESIAN_POINT('',(-0.05,0.05,-0.048));
#1845=CARTESIAN_POINT('',(-0.05,0.03,-0.035));
#1846=CARTESIAN_POINT('',(-0.05,0.03,-0.035));
#1847=CARTESIAN_POINT('',(-0.05,-0.02,-0.035));
#1848=CARTESIAN_POINT('',(-0.05,-0.02,-0.035));
#1849=CARTESIAN_POINT('',(-0.05,-0.02,-0.048));
#1850=CARTESIAN_POINT('',(-0.05,-0.02,-0.048));
#1851=CARTESIAN_POINT('',(-0.05,0.05,-0.048));
#1852=CARTESIAN_POINT('',(-0.05,-0.04,-0.028));
#1853=CARTESIAN_POINT('',(-0.05,-0.04,-0.028));
#1854=CARTESIAN_POINT('',(-0.05,-0.04,0.028000000000001));
#1855=CARTESIAN_POINT('',(-0.05,-0.04,0.028000000000001));
#1856=CARTESIAN_POINT('',(-0.05,-0.05,0.028000000000001));
#1857=CARTESIAN_POINT('',(-0.05,-0.05,0.028000000000001));
#1858=CARTESIAN_POINT('',(-0.05,-0.05,-0.048));
#1859=CARTESIAN_POINT('',(-0.05,-0.02,0.035));
#1860=CARTESIAN_POINT('',(-0.05,-0.02,0.035));
#1861=CARTESIAN_POINT('',(-0.05,0.03,0.035));
#1862=CARTESIAN_POINT('',(-0.05,0.03,0.035));
#1863=CARTESIAN_POINT('',(-0.05,0.03,0.048));
#1864=CARTESIAN_POINT('',(-0.05,0.03,0.048));
#1865=CARTESIAN_POINT('',(-0.05,0.05,0.048));
#1866=CARTESIAN_POINT('',(-0.05,0.05,0.048));
#1867=CARTESIAN_POINT('',(-0.05,0.05,-0.048));
#1868=CARTESIAN_POINT('',(-0.05,0.05,0.048));
#1869=CARTESIAN_POINT('',(0.05,0.03,0.048));
#1870=CARTESIAN_POINT('',(0.05,0.03,0.048));
#1871=CARTESIAN_POINT('',(0.05,0.05,0.048));
#1872=CARTESIAN_POINT('',(0.05,0.05,0.048));
#1873=CARTESIAN_POINT('',(-0.05,0.05,0.048));
#1874=CARTESIAN_POINT('',(0.05,0.05,0.048));
#1875=CARTESIAN_POINT('',(0.05,-0.02,-0.035));
#1876=CARTESIAN_POINT('',(0.05,-0.02,-0.035));
#1877=CARTESIAN_POINT('',(0.05,0.03,-0.035));
#1878=CARTESIAN_POINT('',(0.05,0.03,-0.035));
#1879=CARTESIAN_POINT('',(0.05,0.05,0.048));
#1880=CARTESIAN_POINT('',(0.05,0.03,0.048));
#1881=CARTESIAN_POINT('',(0.05,0.03,0.035));
#1882=CARTESIAN_POINT('',(0.05,0.03,0.035));
#1883=CARTESIAN_POINT('',(0.05,-0.02,0.035));
#1884=CARTESIAN_POINT('',(0.05,-0.02,0.035));
#1885=CARTESIAN_POINT('',(0.05,-0.05,0.048));
#1886=CARTESIAN_POINT('',(0.05,-0.05,0.028000000000001));
#1887=CARTESIAN_POINT('',(0.05,-0.05,0.028000000000001));
#1888=CARTESIAN_POINT('',(0.05,-0.04,0.028000000000001));
#1889=CARTESIAN_POINT('',(0.05,-0.04,0.028000000000001));
#1890=CARTESIAN_POINT('',(0.05,-0.04,-0.028));
#1891=CARTESIAN_POINT('',(0.05,-0.04,-0.028));
#1892=CARTESIAN_POINT('',(0.05,0.05,-0.048));
#1893=CARTESIAN_POINT('',(0.05,-0.02,-0.048));
#1894=CARTESIAN_POINT('',(0.05,-0.02,-0.048));
#1895=CARTESIAN_POINT('',(0.016,0.05,-0.009));
#1896=CARTESIAN_POINT('',(0.016,-0.04,-0.009));
#1897=CARTESIAN_POINT('',(0.016,-0.04,-0.009));
#1898=CARTESIAN_POINT('',(0.016,-0.04,0.007));
#1899=CARTESIAN_POINT('',(0.016,0.05,-0.009));
#1900=CARTESIAN_POINT('',(0.016,0.05,-0.009));
#1901=CARTESIAN_POINT('',(0.016,0.05,-0.009));
#1902=CARTESIAN_POINT('',(0.016,0.05,0.007));
#1903=CARTESIAN_POINT('',(0.016,0.05,0.007));
#1904=CARTESIAN_POINT('',(0.032,0.05,-0.009));
#1905=CARTESIAN_POINT('',(0.032,-0.04,-0.009));
#1906=CARTESIAN_POINT('',(0.032,-0.04,-0.009));
#1907=CARTESIAN_POINT('',(0.032,0.05,-0.009));
#1908=CARTESIAN_POINT('',(0.032,0.05,-0.009));
#1909=CARTESIAN_POINT('',(0.032,0.05,-0.009));
#1910=CARTESIAN_POINT('',(0.032,0.05,0.007));
#1911=CARTESIAN_POINT('',(0.032,-0.04,0.007));
#1912=CARTESIAN_POINT('',(0.032,-0.04,0.007));
#1913=CARTESIAN_POINT('',(0.032,0.05,0.007));
#1914=CARTESIAN_POINT('',(0.032,0.05,0.007));
#1915=CARTESIAN_POINT('',(0.032,0.05,0.007));
#1916=CARTESIAN_POINT('',(-0.034,0.05,-0.009));
#1917=CARTESIAN_POINT('',(-0.034,-0.04,-0.009));
#1918=CARTESIAN_POINT('',(-0.034,-0.04,-0.009));
#1919=CARTESIAN_POINT('',(-0.034,-0.04,0.007));
#1920=CARTESIAN_POINT('',(-0.034,0.05,-0.009));
#1921=CARTESIAN_POINT('',(-0.034,0.05,-0.009));
#1922=CARTESIAN_POINT('',(-0.034,0.05,-0.009));
#1923=CARTESIAN_POINT('',(-0.034,0.05,0.007));
#1924=CARTESIAN_POINT('',(-0.034,0.05,0.007));
#1925=CARTESIAN_POINT('',(-0.018,0.05,-0.009));
#1926=CARTESIAN_POINT('',(-0.018,-0.04,-0.009));
#1927=CARTESIAN_POINT('',(-0.018,-0.04,-0.009));
#1928=CARTESIAN_POINT('',(-0.018,0.05,-0.009));
#1929=CARTESIAN_POINT('',(-0.018,0.05,-0.009));
#1930=CARTESIAN_POINT('',(-0.018,0.05,-0.009));
#1931=CARTESIAN_POINT('',(-0.018,0.05,0.007));
#1932=CARTESIAN_POINT('',(-0.018,-0.04,0.007));
#1933=CARTESIAN_POINT('',(-0.018,-0.04,0.007));
#1934=CARTESIAN_POINT('',(-0.018,0.05,0.007));
#1935=CARTESIAN_POINT('',(-0.018,0.05,0.007));
#1936=CARTESIAN_POINT('',(-0.018,0.05,0.007));
#1937=CARTESIAN_POINT('',(0.016,0.05,0.007));
#1938=CARTESIAN_POINT('',(0.016,-0.04,0.007));
#1939=CARTESIAN_POINT('',(0.016,0.05,0.007));
#1940=CARTESIAN_POINT('',(-0.034,0.05,0.007));
#1941=CARTESIAN_POINT('',(-0.034,-0.04,0.007));
#1942=CARTESIAN_POINT('',(-0.034,0.05,0.007));
#1943=CARTESIAN_POINT('',(0.05,0.05,-0.048));
#1944=CARTESIAN_POINT('',(0.05,-0.02,-0.048));
#1945=CARTESIAN_POINT('',(0.,0.05,0.));
#1946=CARTESIAN_POINT('',(0.,-0.05,0.));
#1947=CARTESIAN_POINT('',(0.05,-0.05,0.028000000000001));
#1948=CARTESIAN_POINT('',(0.05,-0.04,-0.028));
#1949=CARTESIAN_POINT('',(0.05,-0.04,-0.028));
#1950=CARTESIAN_POINT('',(0.05,-0.05,0.028000000000001));
#1951=CARTESIAN_POINT('',(0.05,-0.04,0.028000000000001));
#1952=CARTESIAN_POINT('',(0.05,-0.04,0.028000000000001));
#1953=CARTESIAN_POINT('',(0.05,0.03,-0.035));
#1954=CARTESIAN_POINT('',(0.05,0.03,-0.035));
#1955=CARTESIAN_POINT('',(0.05,-0.02,-0.048));
#1956=CARTESIAN_POINT('',(0.05,-0.02,-0.035));
#1957=CARTESIAN_POINT('',(0.05,-0.02,-0.035));
#1958=CARTESIAN_POINT('',(0.05,-0.02,0.035));
#1959=CARTESIAN_POINT('',(0.05,-0.02,0.035));
#1960=CARTESIAN_POINT('',(0.05,0.03,0.035));
#1961=CARTESIAN_POINT('',(0.05,0.03,0.035));
#1962=CARTESIAN_POINT('',(0.05,0.03,0.048));
#1963=CARTESIAN_POINT('',(0.,0.,0.));
#1964=CARTESIAN_POINT('',(0.034,-0.01,-0.023723871730558));
#1965=CARTESIAN_POINT('',(0.034,0.,-0.023723871730558));
#1966=CARTESIAN_POINT('',(0.034,0.,-0.023723871730558));
#1967=CARTESIAN_POINT('',(-0.034,0.,-0.023723871730558));
#1968=CARTESIAN_POINT('',(0.034,-0.01,-0.023723871730558));
#1969=CARTESIAN_POINT('',(0.034,-0.01,-0.023723871730558));
#1970=CARTESIAN_POINT('',(0.034,-0.01,-0.023723871730558));
#1971=CARTESIAN_POINT('',(-0.034,-0.01,-0.023723871730558));
#1972=CARTESIAN_POINT('',(-0.034,-0.01,-0.023723871730558));
#1973=CARTESIAN_POINT('',(0.034,0.01,0.023723871730558));
#1974=CARTESIAN_POINT('',(0.034,0.,0.023723871730558));
#1975=CARTESIAN_POINT('',(-0.034,0.,0.023723871730558));
#1976=CARTESIAN_POINT('',(0.034,0.,0.023723871730558));
#1977=CARTESIAN_POINT('',(-0.034,0.01,0.023723871730558));
#1978=CARTESIAN_POINT('',(-0.034,-0.01,0.023723871730558));
#1979=CARTESIAN_POINT('',(0.034,-0.01,0.023723871730558));
#1980=CARTESIAN_POINT('',(0.034,-0.01,0.023723871730558));
#1981=CARTESIAN_POINT('',(0.034,0.01,0.023723871730558));
#1982=CARTESIAN_POINT('',(0.034,-0.0620000000000025,0.0289999999999991));
#1983=CARTESIAN_POINT('',(0.034,0.,0.0289999999999991));
#1984=CARTESIAN_POINT('',(0.034,-0.01,0.023723871730558));
#1985=CARTESIAN_POINT('',(0.034,-0.01,0.0089999999999992));
#1986=CARTESIAN_POINT('',(0.034,-0.01,0.0089999999999992));
#1987=CARTESIAN_POINT('',(0.034,-0.0620000000000007,0.0089999999999993));
#1988=CARTESIAN_POINT('',(0.034,-0.0620000000000007,0.0289999999999986));
#1989=CARTESIAN_POINT('',(0.034,-0.082,0.0289999999999986));
#1990=CARTESIAN_POINT('',(0.034,-0.082,0.0289999999999986));
#1991=CARTESIAN_POINT('',(0.034,-0.082,0.097999999999999));
#1992=CARTESIAN_POINT('',(0.034,-0.082,0.097999999999999));
#1993=CARTESIAN_POINT('',(0.034,-0.1,0.097999999999999));
#1994=CARTESIAN_POINT('',(0.034,-0.1,0.097999999999999));
#1995=CARTESIAN_POINT('',(0.034,-0.1,0.0289999999999991));
#1996=CARTESIAN_POINT('',(0.034,-0.0620000000000025,0.0289999999999991));
#1997=CARTESIAN_POINT('',(0.034,-0.062,-0.00899999999999931));
#1998=CARTESIAN_POINT('',(0.034,-0.0620000000000002,-0.009000000000001));
#1999=CARTESIAN_POINT('',(0.034,-0.01,-0.009000000000001));
#2000=CARTESIAN_POINT('',(0.034,-0.01,-0.009000000000001));
#2001=CARTESIAN_POINT('',(-0.034,-0.0620000000000025,0.0289999999999991));
#2002=CARTESIAN_POINT('',(-0.034,0.,0.0289999999999991));
#2003=CARTESIAN_POINT('',(-0.034,-0.01,-0.009000000000001));
#2004=CARTESIAN_POINT('',(-0.034,-0.01,-0.009000000000001));
#2005=CARTESIAN_POINT('',(-0.034,-0.0620000000000002,-0.009000000000001));
#2006=CARTESIAN_POINT('',(-0.034,-0.0620000000000002,-0.009000000000001));
#2007=CARTESIAN_POINT('',(-0.034,-0.0620000000000002,-0.0290000000000008));
#2008=CARTESIAN_POINT('',(-0.034,-0.082,-0.0290000000000008));
#2009=CARTESIAN_POINT('',(-0.034,-0.082,-0.098));
#2010=CARTESIAN_POINT('',(-0.034,-0.082,-0.098));
#2011=CARTESIAN_POINT('',(-0.034,-0.1,-0.098));
#2012=CARTESIAN_POINT('',(-0.034,-0.1,-0.098));
#2013=CARTESIAN_POINT('',(-0.034,-0.1,-0.0290000000000029));
#2014=CARTESIAN_POINT('',(-0.034,-0.1,-0.0290000000000029));
#2015=CARTESIAN_POINT('',(-0.034,-0.0619999999999943,-0.0290000000000029));
#2016=CARTESIAN_POINT('',(-0.034,-0.062,0.00900000000000102));
#2017=CARTESIAN_POINT('',(-0.034,-0.01,0.0089999999999992));
#2018=CARTESIAN_POINT('',(-0.034,-0.01,0.0089999999999992));
#2019=CARTESIAN_POINT('',(-0.034,-0.01,0.023723871730558));
#2020=CARTESIAN_POINT('',(0.034,-0.082,0.097999999999999));
#2021=CARTESIAN_POINT('',(0.034,-0.082,0.097999999999999));
#2022=CARTESIAN_POINT('',(0.016,-0.082,0.097999999999999));
#2023=CARTESIAN_POINT('',(0.016,-0.082,0.097999999999999));
#2024=CARTESIAN_POINT('',(0.016,-0.1,0.097999999999999));
#2025=CARTESIAN_POINT('',(0.034,-0.1,0.097999999999999));
#2026=CARTESIAN_POINT('',(0.034,-0.1,0.097999999999999));
#2027=CARTESIAN_POINT('',(0.016,-0.1,0.2));
#2028=CARTESIAN_POINT('',(0.016,-0.1,0.0289999999999991));
#2029=CARTESIAN_POINT('',(0.034,-0.1,0.0289999999999991));
#2030=CARTESIAN_POINT('',(0.034,-0.0620000000000025,0.0289999999999991));
#2031=CARTESIAN_POINT('',(0.016,-0.0620000000000025,0.0289999999999991));
#2032=CARTESIAN_POINT('',(0.016,-0.062,-0.00899999999999929));
#2033=CARTESIAN_POINT('',(0.034,-0.0620000000000002,-0.009000000000001));
#2034=CARTESIAN_POINT('',(0.034,-0.0620000000000002,-0.009000000000001));
#2035=CARTESIAN_POINT('',(0.016,-0.0620000000000002,-0.009000000000001));
#2036=CARTESIAN_POINT('',(0.016,-0.01,-0.00900000000000102));
#2037=CARTESIAN_POINT('',(0.034,-0.01,-0.009000000000001));
#2038=CARTESIAN_POINT('',(0.034,-0.01,0.0089999999999992));
#2039=CARTESIAN_POINT('',(0.034,-0.01,0.0089999999999992));
#2040=CARTESIAN_POINT('',(0.016,-0.01,0.00899999999999921));
#2041=CARTESIAN_POINT('',(0.016,-0.01,0.0089999999999992));
#2042=CARTESIAN_POINT('',(0.016,-0.0620000000000007,0.0089999999999993));
#2043=CARTESIAN_POINT('',(0.034,-0.0620000000000007,0.0089999999999993));
#2044=CARTESIAN_POINT('',(0.034,-0.0620000000000007,0.0289999999999986));
#2045=CARTESIAN_POINT('',(0.016,-0.0620000000000007,0.0289999999999986));
#2046=CARTESIAN_POINT('',(0.016,-0.082,0.0289999999999986));
#2047=CARTESIAN_POINT('',(0.034,-0.082,0.0289999999999986));
#2048=CARTESIAN_POINT('',(0.034,-0.082,0.0289999999999986));
#2049=CARTESIAN_POINT('',(0.016,-0.082,0.0289999999999986));
#2050=CARTESIAN_POINT('',(0.034,-0.0619999999999943,-0.0290000000000029));
#2051=CARTESIAN_POINT('',(0.034,-0.1,-0.0290000000000029));
#2052=CARTESIAN_POINT('',(-0.016,-0.1,-0.0290000000000029));
#2053=CARTESIAN_POINT('',(-0.016,-0.0619999999999943,-0.0290000000000029));
#2054=CARTESIAN_POINT('',(-0.016,-0.062,0.00900000000000103));
#2055=CARTESIAN_POINT('',(0.034,-0.0620000000000007,0.0089999999999993));
#2056=CARTESIAN_POINT('',(0.034,-0.1,-0.0290000000000029));
#2057=CARTESIAN_POINT('',(0.034,-0.1,-0.098));
#2058=CARTESIAN_POINT('',(-0.016,-0.1,-0.098));
#2059=CARTESIAN_POINT('',(-0.016,-0.1,0.2));
#2060=CARTESIAN_POINT('',(0.034,-0.1,-0.098));
#2061=CARTESIAN_POINT('',(0.034,-0.082,-0.098));
#2062=CARTESIAN_POINT('',(-0.016,-0.082,-0.098));
#2063=CARTESIAN_POINT('',(-0.016,-0.1,-0.098));
#2064=CARTESIAN_POINT('',(0.034,-0.082,-0.098));
#2065=CARTESIAN_POINT('',(0.034,-0.082,-0.0290000000000008));
#2066=CARTESIAN_POINT('',(-0.016,-0.082,-0.0290000000000008));
#2067=CARTESIAN_POINT('',(-0.016,-0.082,-0.098));
#2068=CARTESIAN_POINT('',(0.034,-0.0620000000000002,-0.0290000000000008));
#2069=CARTESIAN_POINT('',(-0.016,-0.0620000000000002,-0.0290000000000008));
#2070=CARTESIAN_POINT('',(-0.016,-0.0620000000000002,-0.009000000000001));
#2071=CARTESIAN_POINT('',(0.034,-0.0620000000000002,-0.009000000000001));
#2072=CARTESIAN_POINT('',(0.034,-0.0620000000000002,-0.009000000000001));
#2073=CARTESIAN_POINT('',(0.034,-0.01,-0.009000000000001));
#2074=CARTESIAN_POINT('',(-0.016,-0.01,-0.00900000000000102));
#2075=CARTESIAN_POINT('',(-0.016,-0.0620000000000002,-0.009000000000001));
#2076=CARTESIAN_POINT('',(0.034,-0.01,0.023723871730558));
#2077=CARTESIAN_POINT('',(0.034,-0.01,0.0089999999999992));
#2078=CARTESIAN_POINT('',(-0.016,-0.01,0.00899999999999924));
#2079=CARTESIAN_POINT('',(-0.016,-0.01,0.2));
#2080=CARTESIAN_POINT('',(0.016,-0.01,0.2));
#2081=CARTESIAN_POINT('',(0.034,-0.01,0.0089999999999992));
#2082=CARTESIAN_POINT('',(-0.016,-0.01,0.0089999999999992));
#2083=CARTESIAN_POINT('',(-0.016,-0.1,0.2));
#2084=CARTESIAN_POINT('',(0.016,-0.01,0.2));
#2085=CARTESIAN_POINT('',(0.068,0.,10.));
#2086=CARTESIAN_POINT('',(0.,0.,0.));
#2087=CARTESIAN_POINT('',(0.034,-0.01,-0.023723871730558));
#2088=CARTESIAN_POINT('',(0.034,0.,-0.023723871730558));
#2089=CARTESIAN_POINT('',(-0.034,0.,-0.023723871730558));
#2090=CARTESIAN_POINT('',(0.034,0.,-0.023723871730558));
#2091=CARTESIAN_POINT('',(-0.034,-0.01,-0.023723871730558));
#2092=CARTESIAN_POINT('',(-0.034,0.01,-0.023723871730558));
#2093=CARTESIAN_POINT('',(0.034,0.01,-0.023723871730558));
#2094=CARTESIAN_POINT('',(0.034,0.01,-0.023723871730558));
#2095=CARTESIAN_POINT('',(0.034,-0.01,-0.023723871730558));
#2096=CARTESIAN_POINT('',(0.034,0.01,0.023723871730558));
#2097=CARTESIAN_POINT('',(0.034,0.,0.023723871730558));
#2098=CARTESIAN_POINT('',(0.034,0.,0.023723871730558));
#2099=CARTESIAN_POINT('',(-0.034,0.,0.023723871730558));
#2100=CARTESIAN_POINT('',(0.034,0.01,0.023723871730558));
#2101=CARTESIAN_POINT('',(0.034,0.01,0.023723871730558));
#2102=CARTESIAN_POINT('',(0.034,0.01,0.023723871730558));
#2103=CARTESIAN_POINT('',(-0.034,0.01,0.023723871730558));
#2104=CARTESIAN_POINT('',(-0.034,0.01,0.023723871730558));
#2105=CARTESIAN_POINT('',(0.034,-0.0620000000000025,0.0289999999999991));
#2106=CARTESIAN_POINT('',(0.034,0.,0.0289999999999991));
#2107=CARTESIAN_POINT('',(0.034,0.01,-0.023723871730558));
#2108=CARTESIAN_POINT('',(0.034,0.01,-0.009000000000001));
#2109=CARTESIAN_POINT('',(0.034,0.01,-0.009000000000001));
#2110=CARTESIAN_POINT('',(0.034,0.144,-0.00900000000000112));
#2111=CARTESIAN_POINT('',(0.034,0.144,0.0289999999999991));
#2112=CARTESIAN_POINT('',(0.034,0.144,0.0089999999999992));
#2113=CARTESIAN_POINT('',(0.034,0.144,0.0089999999999992));
#2114=CARTESIAN_POINT('',(0.034,0.01,0.0089999999999992));
#2115=CARTESIAN_POINT('',(0.034,0.01,0.0089999999999992));
#2116=CARTESIAN_POINT('',(-0.034,-0.0620000000000025,0.0289999999999991));
#2117=CARTESIAN_POINT('',(-0.034,0.,0.0289999999999991));
#2118=CARTESIAN_POINT('',(-0.034,0.01,0.0089999999999992));
#2119=CARTESIAN_POINT('',(-0.034,0.01,0.0089999999999992));
#2120=CARTESIAN_POINT('',(-0.034,0.144,0.0089999999999992));
#2121=CARTESIAN_POINT('',(-0.034,0.144,0.00899999999999921));
#2122=CARTESIAN_POINT('',(-0.034,0.144,0.0289999999999991));
#2123=CARTESIAN_POINT('',(-0.034,0.144,-0.00900000000000105));
#2124=CARTESIAN_POINT('',(-0.034,0.01,-0.009000000000001));
#2125=CARTESIAN_POINT('',(-0.034,0.01,-0.009000000000001));
#2126=CARTESIAN_POINT('',(-0.034,0.01,-0.023723871730558));
#2127=CARTESIAN_POINT('',(0.034,0.01,-0.009000000000001));
#2128=CARTESIAN_POINT('',(0.034,0.144,-0.00900000000000105));
#2129=CARTESIAN_POINT('',(-0.016,0.144,-0.00900000000000111));
#2130=CARTESIAN_POINT('',(-0.016,0.01,-0.009000000000001));
#2131=CARTESIAN_POINT('',(-0.016,0.01,-0.00900000000000102));
#2132=CARTESIAN_POINT('',(0.034,0.01,-0.009000000000001));
#2133=CARTESIAN_POINT('',(0.034,0.144,-0.00900000000000105));
#2134=CARTESIAN_POINT('',(-0.0113333333333333,0.166666666666667,0.0136666666666656));
#2135=CARTESIAN_POINT('',(-0.028,0.15,-0.0030000000000011));
#2136=CARTESIAN_POINT('',(0.034,0.15,-0.0030000000000011));
#2137=CARTESIAN_POINT('',(-0.022,0.15,-0.0030000000000011));
#2138=CARTESIAN_POINT('',(0.00066666666666666,0.127333333333333,-0.0256666666666677));
#2139=CARTESIAN_POINT('',(0.034,0.15,-0.0030000000000011));
#2140=CARTESIAN_POINT('',(-0.028,0.15,0.2));
#2141=CARTESIAN_POINT('',(-0.028,0.15,0.00299999999999919));
#2142=CARTESIAN_POINT('',(0.034,0.15,0.0029999999999992));
#2143=CARTESIAN_POINT('',(-0.022,0.15,0.00299999999999921));
#2144=CARTESIAN_POINT('',(-0.022,0.15,0.2));
#2145=CARTESIAN_POINT('',(0.034,0.15,0.0029999999999992));
#2146=CARTESIAN_POINT('',(-0.00733333333333332,0.170666666666667,-0.0176666666666675));
#2147=CARTESIAN_POINT('',(0.034,0.144,0.0089999999999992));
#2148=CARTESIAN_POINT('',(-0.016,0.144,0.00899999999999921));
#2149=CARTESIAN_POINT('',(-0.0033333333333333,0.131333333333333,0.0216666666666659));
#2150=CARTESIAN_POINT('',(0.034,0.144,0.0089999999999992));
#2151=CARTESIAN_POINT('',(0.034,0.01,0.0089999999999992));
#2152=CARTESIAN_POINT('',(-0.016,0.01,0.00899999999999921));
#2153=CARTESIAN_POINT('',(-0.016,0.144,0.0089999999999992));
#2154=CARTESIAN_POINT('',(0.034,0.01,-0.009000000000001));
#2155=CARTESIAN_POINT('',(0.034,0.01,-0.009000000000001));
#2156=CARTESIAN_POINT('',(0.016,0.01,-0.00900000000000102));
#2157=CARTESIAN_POINT('',(0.016,0.01,-0.009000000000001));
#2158=CARTESIAN_POINT('',(0.016,0.144,-0.00900000000000107));
#2159=CARTESIAN_POINT('',(0.034,0.144,-0.00900000000000105));
#2160=CARTESIAN_POINT('',(0.034,0.144,-0.00900000000000105));
#2161=CARTESIAN_POINT('',(0.022,0.15,-0.00300000000000107));
#2162=CARTESIAN_POINT('',(0.022,0.15,-0.0030000000000011));
#2163=CARTESIAN_POINT('',(0.034,0.15,-0.0030000000000011));
#2164=CARTESIAN_POINT('',(0.028,0.15,-0.0030000000000011));
#2165=CARTESIAN_POINT('',(0.034,0.144,-0.00900000000000107));
#2166=CARTESIAN_POINT('',(0.034,0.15,-0.0030000000000011));
#2167=CARTESIAN_POINT('',(0.022,0.15,0.2));
#2168=CARTESIAN_POINT('',(0.022,0.15,0.00299999999999919));
#2169=CARTESIAN_POINT('',(0.034,0.15,0.0029999999999992));
#2170=CARTESIAN_POINT('',(0.028,0.15,0.00299999999999919));
#2171=CARTESIAN_POINT('',(0.028,0.15,0.2));
#2172=CARTESIAN_POINT('',(0.034,0.15,0.0029999999999992));
#2173=CARTESIAN_POINT('',(0.026,0.154,-0.0010000000000008));
#2174=CARTESIAN_POINT('',(0.016,0.144,0.00899999999999921));
#2175=CARTESIAN_POINT('',(0.034,0.144,0.0089999999999992));
#2176=CARTESIAN_POINT('',(0.03,0.148,0.00499999999999919));
#2177=CARTESIAN_POINT('',(0.034,0.144,0.0089999999999992));
#2178=CARTESIAN_POINT('',(0.016,0.144,0.0089999999999992));
#2179=CARTESIAN_POINT('',(0.016,0.01,0.0089999999999992));
#2180=CARTESIAN_POINT('',(0.034,0.01,0.0089999999999992));
#2181=CARTESIAN_POINT('',(0.034,0.01,0.0089999999999992));
#2182=CARTESIAN_POINT('',(0.016,0.01,0.2));
#2183=CARTESIAN_POINT('',(-0.016,0.01,0.2));
#2184=CARTESIAN_POINT('',(-0.028,0.15,0.2));
#2185=CARTESIAN_POINT('',(0.034,0.144,0.2));
#2186=CARTESIAN_POINT('',(-0.016,0.144,0.2));
#2187=CARTESIAN_POINT('',(-0.016,0.144,0.2));
#2188=CARTESIAN_POINT('',(0.022,0.15,0.2));
#2189=CARTESIAN_POINT('',(0.016,0.144,0.2));
#2190=CARTESIAN_POINT('',(-0.016,0.01,0.2));
#2191=CARTESIAN_POINT('',(0.016,0.144,0.2));
#2192=CARTESIAN_POINT('',(0.068,0.,-10.));
#2193=CARTESIAN_POINT('',(0.,0.,0.));
#2194=MECHANICAL_DESIGN_GEOMETRIC_PRESENTATION_REPRESENTATION('',(#1359,
#1360,#1361),#2195);
#2195=(
GEOMETRIC_REPRESENTATION_CONTEXT(3)
GLOBAL_UNCERTAINTY_ASSIGNED_CONTEXT((#2199))
GLOBAL_UNIT_ASSIGNED_CONTEXT((#2205,#2204,#2203))
REPRESENTATION_CONTEXT('FTR-102-02-S-S','TOP_LEVEL_ASSEMBLY_PART')
);
#2196=(
GEOMETRIC_REPRESENTATION_CONTEXT(3)
GLOBAL_UNCERTAINTY_ASSIGNED_CONTEXT((#2200))
GLOBAL_UNIT_ASSIGNED_CONTEXT((#2205,#2204,#2203))
REPRESENTATION_CONTEXT('FTR-102-02-S-S_body','COMPONENT_PART')
);
#2197=(
GEOMETRIC_REPRESENTATION_CONTEXT(3)
GLOBAL_UNCERTAINTY_ASSIGNED_CONTEXT((#2201))
GLOBAL_UNIT_ASSIGNED_CONTEXT((#2205,#2204,#2203))
REPRESENTATION_CONTEXT('FTR-102-02-S-S_pins','COMPONENT_PART')
);
#2198=(
GEOMETRIC_REPRESENTATION_CONTEXT(3)
GLOBAL_UNCERTAINTY_ASSIGNED_CONTEXT((#2202))
GLOBAL_UNIT_ASSIGNED_CONTEXT((#2205,#2204,#2203))
REPRESENTATION_CONTEXT('FTR-102-02-S-S2PNS','COMPONENT_PART')
);
#2199=UNCERTAINTY_MEASURE_WITH_UNIT(LENGTH_MEASURE(0.000196850393700787),
#2205,'DISTANCE_ACCURACY_VALUE','Maximum Tolerance applied to model');
#2200=UNCERTAINTY_MEASURE_WITH_UNIT(LENGTH_MEASURE(0.000196850393700787),
#2205,'DISTANCE_ACCURACY_VALUE','Maximum Tolerance applied to model');
#2201=UNCERTAINTY_MEASURE_WITH_UNIT(LENGTH_MEASURE(0.000196850393700787),
#2205,'DISTANCE_ACCURACY_VALUE','Maximum Tolerance applied to model');
#2202=UNCERTAINTY_MEASURE_WITH_UNIT(LENGTH_MEASURE(0.000196850393700787),
#2205,'DISTANCE_ACCURACY_VALUE','Maximum Tolerance applied to model');
#2203=(
NAMED_UNIT(*)
SI_UNIT($,.STERADIAN.)
SOLID_ANGLE_UNIT()
);
#2204=(
NAMED_UNIT(*)
PLANE_ANGLE_UNIT()
SI_UNIT($,.RADIAN.)
);
#2205=(
CONVERSION_BASED_UNIT('INCH',#2207)
LENGTH_UNIT()
NAMED_UNIT(#2206)
);
#2206=DIMENSIONAL_EXPONENTS(1.,0.,0.,0.,0.,0.,0.);
#2207=LENGTH_MEASURE_WITH_UNIT(LENGTH_MEASURE(25.4),#2208);
#2208=(
LENGTH_UNIT()
NAMED_UNIT(*)
SI_UNIT(.MILLI.,.METRE.)
);
#2209=PRODUCT_DEFINITION_SHAPE('','',#2216);
#2210=PRODUCT_DEFINITION_SHAPE('','',#2217);
#2211=PRODUCT_DEFINITION_SHAPE(' ','NAUO PRDDFN',#33);
#2212=PRODUCT_DEFINITION_SHAPE('','',#2218);
#2213=PRODUCT_DEFINITION_SHAPE(' ','NAUO PRDDFN',#34);
#2214=PRODUCT_DEFINITION_SHAPE('','',#2219);
#2215=PRODUCT_DEFINITION_SHAPE(' ','NAUO PRDDFN',#35);
#2216=PRODUCT_DEFINITION('','',#2224,#2220);
#2217=PRODUCT_DEFINITION('','',#2225,#2221);
#2218=PRODUCT_DEFINITION('','',#2226,#2222);
#2219=PRODUCT_DEFINITION('','',#2227,#2223);
#2220=PRODUCT_DEFINITION_CONTEXT('',#2245,'design');
#2221=PRODUCT_DEFINITION_CONTEXT('',#2245,'design');
#2222=PRODUCT_DEFINITION_CONTEXT('',#2245,'design');
#2223=PRODUCT_DEFINITION_CONTEXT('',#2245,'design');
#2224=PRODUCT_DEFINITION_FORMATION_WITH_SPECIFIED_SOURCE('','',#2232,
 .NOT_KNOWN.);
#2225=PRODUCT_DEFINITION_FORMATION_WITH_SPECIFIED_SOURCE('','',#2233,
 .NOT_KNOWN.);
#2226=PRODUCT_DEFINITION_FORMATION_WITH_SPECIFIED_SOURCE('','',#2234,
 .NOT_KNOWN.);
#2227=PRODUCT_DEFINITION_FORMATION_WITH_SPECIFIED_SOURCE('','',#2235,
 .NOT_KNOWN.);
#2228=PRODUCT_RELATED_PRODUCT_CATEGORY('','',(#2232));
#2229=PRODUCT_RELATED_PRODUCT_CATEGORY('','',(#2233));
#2230=PRODUCT_RELATED_PRODUCT_CATEGORY('','',(#2234));
#2231=PRODUCT_RELATED_PRODUCT_CATEGORY('','',(#2235));
#2232=PRODUCT('FTR-102-02-S-S','FTR-102-02-S-S','FTR-102-02-S-S',(#2240));
#2233=PRODUCT('FTR-102-02-S-S_body','FTR-102-02-S-S_body',
'FTR-102-02-S-S_body',(#2241));
#2234=PRODUCT('FTR-102-02-S-S_pins','FTR-102-02-S-S_pins',
'FTR-102-02-S-S_pins',(#2242));
#2235=PRODUCT('FTR-102-02-S-S2PNS','FTR-102-02-S-S2PNS',
'FTR-102-02-S-S2PNS',(#2243));
#2236=PRODUCT_CATEGORY('','');
#2237=PRODUCT_CATEGORY('','');
#2238=PRODUCT_CATEGORY('','');
#2239=PRODUCT_CATEGORY('','');
#2240=PRODUCT_CONTEXT('',#2245,'mechanical');
#2241=PRODUCT_CONTEXT('',#2245,'mechanical');
#2242=PRODUCT_CONTEXT('',#2245,'mechanical');
#2243=PRODUCT_CONTEXT('',#2245,'mechanical');
#2244=APPLICATION_PROTOCOL_DEFINITION('international standard',
'automotive_design',2010,#2245);
#2245=APPLICATION_CONTEXT(
'core data for automotive mechanical design processes');
ENDSEC;
END-ISO-10303-21;
